<svg xmlns="http://www.w3.org/2000/svg" height="1024" preserveAspectRatio="none" style="display: block;" version="1.1" viewBox="0 0 2048 2048" width="1024">
<defs>
	<linearGradient gradientUnits="userSpaceOnUse" id="Gradient1" x1="647.338" x2="640.529" y1="1417.33" y2="1418.7">
		<stop class="stop0" offset="0" stop-color="rgb(141,48,64)" stop-opacity="0.980392"></stop>
		<stop class="stop1" offset="1" stop-color="rgb(116,8,59)" stop-opacity="1"></stop>
	</linearGradient>
</defs>
<path d="M 1474.67 428.266 C 1507.16 425.652 1529.48 456.5 1531.17 487.267 C 1531.52 493.76 1517.71 502.773 1512.49 506.728 C 1510.94 512.595 1508.15 525.693 1510.51 531.249 C 1514.65 540.97 1529.23 529.045 1536.4 533.589 C 1540.05 535.897 1540.55 541.172 1541.22 545.003 C 1548.97 589.946 1482.05 579.073 1459.06 595.808 C 1448.05 603.827 1443.02 627.062 1433.19 639.586 C 1417.81 659.186 1395.74 670.175 1371.67 674.107 C 1371.38 712.035 1371.21 749.367 1396.2 780.68 C 1398.39 783.428 1404.04 790.051 1403.61 793.335 C 1396.71 795.346 1378.43 789.423 1371.37 787.197 C 1373.81 793.123 1376.78 798.098 1380.41 803.332 C 1395.73 825.406 1410.63 846.953 1420.81 872.022 C 1405.82 870.704 1403.86 869.535 1389.66 863.422 C 1421.46 929.048 1409.79 953.56 1400.72 1022.48 C 1418.5 1018.04 1436.07 1012.79 1453.38 1006.74 C 1461.11 1004.07 1469.76 1001.2 1477.5 998.397 C 1499.12 990.556 1511.01 991.328 1526.74 1009.22 C 1542.21 1025.89 1557.46 1042.78 1573.04 1059.36 C 1579.11 1065.82 1584.44 1070.63 1591.22 1076.05 C 1602.32 1084.91 1617.59 1094.37 1625.78 1105.8 C 1629.97 1111.65 1623.44 1138.57 1623.36 1146.54 C 1623.23 1159.87 1623.63 1172.3 1624.15 1185.56 C 1624.1 1192.53 1632.95 1201.91 1632.96 1208.3 C 1632.99 1216.23 1615.19 1228.89 1609.43 1232.75 C 1596.17 1241.74 1576.25 1255.79 1560.3 1257.81 C 1545.99 1259.63 1542.07 1222.21 1542.07 1212.73 C 1542.06 1198.17 1543.3 1178.52 1550.89 1165.82 C 1553.75 1161.03 1561.52 1153.26 1565.38 1149.12 C 1548.75 1146.27 1543.05 1145.35 1549.67 1126.75 C 1538.58 1118.32 1528.6 1108.17 1517.79 1099.35 C 1508.13 1091.47 1497.73 1085.51 1486.89 1079.48 C 1475.44 1092.22 1459.33 1101.85 1442.9 1106.61 C 1459.38 1124.64 1492.68 1138.32 1503.89 1155.42 C 1523.68 1185.6 1473.62 1243.8 1461.62 1271.29 C 1458.4 1278.68 1458.92 1287.36 1457.11 1295.14 C 1456.15 1299.26 1454.6 1303.29 1451.64 1306.4 C 1444.77 1313.61 1432.7 1316.96 1423.98 1321.65 C 1415.86 1326.01 1407.34 1331.35 1400.03 1336.96 C 1394.38 1341.31 1392.09 1350.14 1386.3 1353.54 C 1379.37 1357.6 1327.65 1373.56 1322 1371.57 C 1319.23 1370.6 1317.25 1367.22 1316.18 1364.64 C 1307.83 1344.56 1318.89 1303.62 1327.54 1284.72 C 1331.96 1275.08 1339.22 1262.28 1349.77 1258.72 C 1361.43 1254.79 1372.68 1260.22 1383.05 1265.08 C 1386.65 1261.45 1390.22 1257.78 1393.74 1254.07 C 1380.48 1210.94 1413.87 1233.85 1425.6 1211.63 C 1437.9 1188.34 1422.37 1182.06 1403.41 1175.66 C 1384.76 1169.36 1365.57 1163.64 1345.59 1158.35 C 1337.1 1177.77 1329.65 1196.77 1313.05 1210.72 C 1308.25 1214.75 1296.9 1224.57 1290.63 1224.14 L 1289.55 1222.36 C 1291.22 1208.91 1312.59 1192.22 1321.25 1178.53 L 1322.11 1177.16 C 1309.46 1189.07 1286.31 1201.21 1271.25 1211.18 C 1221.56 1244.09 1167 1270.55 1110.82 1290.41 C 1085.95 1299.21 1057.86 1306.14 1032.71 1314.77 C 1015.34 1320.73 998.342 1328.48 981.522 1335.98 C 981.949 1338.64 982.325 1341.31 982.647 1343.98 C 984.612 1360.36 983.967 1375.59 984.521 1391.72 C 987.218 1470.25 955.103 1540.8 906.276 1600.49 C 899.153 1609.2 891.44 1617.53 884.379 1626.47 C 948.469 1643.05 1019.53 1657.35 1084.78 1672.79 L 1202.51 1700.82 C 1224.23 1706.09 1248.52 1712.75 1270.24 1717.06 C 1286.91 1696.26 1314.48 1698.1 1325.82 1722.66 L 1604.52 1721.93 C 1612.5 1689.95 1628.36 1677.15 1661.45 1675.15 C 1670.34 1647.14 1679.22 1610.35 1686.71 1581.56 L 1720.38 1454.74 L 1832.04 1047.11 C 1823.66 1040.85 1815.74 1034.23 1812.62 1023.92 C 1805.99 1001.97 1816.96 981.289 1838.5 974.892 C 1849.42 971.611 1861.22 973.036 1871.04 978.825 C 1880.14 984.096 1886.63 992.939 1888.91 1003.21 C 1892.68 1019.73 1886.28 1036.25 1871.43 1044.65 C 1864.25 1048.71 1857.9 1049.6 1849.89 1051.35 C 1847.11 1071.01 1839.66 1092.66 1834.46 1112.03 C 1783.49 1301.82 1729.05 1491.35 1680.69 1681.77 C 1707.58 1702.1 1710.42 1718.23 1702.35 1749.34 C 1739.56 1778.17 1782.07 1805.98 1820.3 1835.16 C 1843.07 1852.41 1866.15 1869.24 1889.53 1885.66 C 1903.05 1880.27 1921.35 1877.67 1932.35 1889.87 C 1950.32 1909.78 1936.81 1944.99 1907.64 1941.35 C 1887.45 1938.83 1876.09 1923.11 1879.11 1903.15 C 1840.26 1873.76 1801.1 1844.79 1761.63 1816.24 C 1741.36 1801.54 1709.25 1780.07 1691.45 1764.15 C 1662.22 1791.3 1617.24 1778.58 1606.16 1740.15 C 1596.89 1740.03 1587.36 1740.41 1578.08 1740.62 C 1494.67 1742.45 1410.52 1738.8 1327.2 1742.07 C 1325.52 1745.82 1324.04 1749.07 1321.61 1752.42 C 1316.38 1759.51 1308.56 1764.24 1299.86 1765.58 C 1277.94 1768.74 1267.65 1753.39 1265.82 1733.73 C 1213.23 1724.11 1152.04 1707.13 1099.18 1694.8 L 990.67 1669.09 C 949.768 1659.78 911.475 1651.84 870.915 1640.83 C 861.363 1652.4 836.66 1681.75 835.636 1696.27 C 834.652 1710.22 900.032 1800.58 912.77 1815.27 C 927.707 1832.5 934.62 1839.28 958.372 1834.06 C 963.404 1832.95 968.187 1831.65 973.39 1832.21 C 982.354 1833.17 992.274 1845.23 997.65 1851.85 C 1004.36 1860.11 1027.72 1889.35 1025.56 1899.17 C 1024.6 1903.53 1020.71 1906.61 1017 1908.64 C 991.808 1922.44 943.732 1924.63 916.5 1916.26 C 883.807 1906.21 889.597 1894.9 875.941 1869.34 L 875.292 1868.14 C 867.982 1869.27 856.511 1876.39 850.52 1871.9 C 845.148 1867.88 837.646 1848.74 834.373 1842.02 C 827.099 1827.38 819.373 1812.98 811.208 1798.82 C 791.437 1765.11 769.294 1734.35 744.591 1704.16 C 723.045 1677.82 759.997 1646.08 772.927 1624.51 L 773.76 1623.1 L 754.367 1618.96 C 743.234 1630.76 736.233 1638.77 723.297 1649.33 C 707.899 1661.27 693.273 1673.23 678.57 1685.98 C 644.95 1715.14 643.767 1763.74 636.508 1804.5 C 634.506 1815.75 633.1 1828.64 632.479 1839.92 C 630.419 1874.65 650.361 1867.43 672.897 1875.73 C 690.013 1882.03 715.879 1925.37 714.959 1941.78 C 713.717 1963.96 646.334 1962.15 631.969 1959.96 C 615.76 1957.5 580.379 1954.6 571.196 1939.12 C 568.642 1934.52 570.3 1921.48 570.859 1916.06 C 575.25 1894.78 558.24 1898.57 552.97 1891.98 C 549.436 1887.56 558.925 1857.45 560.809 1849.18 C 570.702 1805.74 579.159 1761.02 583.163 1716.55 C 584.581 1701.1 581.03 1678.62 584.25 1665.76 C 575.981 1672.68 566.464 1685.33 557.424 1693.71 C 539.745 1710.11 513.039 1728.66 499.797 1748.6 C 492.673 1759.33 495.437 1785 502.067 1796.54 C 505.485 1802.49 512.414 1813.27 514.649 1819.59 L 513.582 1821.16 C 504.157 1823.69 485.074 1810.2 478.187 1803.68 C 456.496 1783.16 452.717 1758.51 451.954 1730.38 C 447.201 1739.95 445.468 1743.19 443.438 1753.88 C 442.352 1759.6 442.114 1775.75 440.253 1779.6 L 438.159 1779.76 C 432.845 1775.86 425.17 1758.29 422.959 1751.17 C 401.461 1681.89 460.999 1643.61 470.122 1581.5 C 479.37 1517.73 453.165 1464.92 488.506 1404.04 C 520.592 1348.76 555.265 1330.35 613.736 1312.19 C 649.028 1199.57 758.489 1142.11 846.239 1075.22 C 904.767 1029.76 966.094 979.728 1009.72 919.352 C 1011.19 917.314 1028.11 845.93 1032.79 833.052 C 1025.19 842.114 1017.58 850.068 1007.33 855.998 C 1004.18 807.671 1026.7 771.059 1055.55 734.15 C 1041.25 738.194 1031.79 742.456 1018 747.296 C 1025.23 715.89 1052.87 674.029 1074.1 650.4 C 1085.37 637.861 1105.55 620.908 1118.51 609.896 C 1102.91 613.551 1087.23 616.804 1071.46 619.65 C 1094.08 571.238 1148.66 557.185 1196.5 550.585 C 1171.71 528.875 1165.53 512.89 1161.04 479.957 C 1175.14 490.472 1184.92 495.851 1201.4 501.472 C 1212.77 491.159 1220.88 479.739 1234.1 471.05 C 1257.37 455.747 1288.76 451.955 1315.18 461.119 C 1323.98 464.17 1332.56 469.319 1341.72 471.046 C 1358.86 474.276 1440.14 456.59 1455.83 448.059 C 1463.94 443.645 1466.26 433.96 1473.84 428.809 C 1474.12 428.623 1474.4 428.447 1474.67 428.266 z M 564.903 1886.3 C 582.47 1890.29 573.267 1891.57 583.254 1901.49 C 587.269 1900.22 587.349 1899.38 590.387 1900.58 C 595.259 1911.33 582.19 1919.41 584.122 1930.64 C 586.486 1933.69 585 1932.52 589.027 1933.86 C 592.327 1931.77 607.162 1909.19 613.669 1902.81 C 623.337 1893.32 629.337 1889.27 640.212 1881.13 C 632.341 1877.3 623.431 1872.34 621.512 1862.5 C 614.004 1823.98 632.922 1734.33 648.232 1699.59 C 658.321 1676.7 704.898 1646.45 724.96 1628.11 C 785.379 1572.89 819.813 1513.01 850.246 1438.01 C 857.321 1420.57 855.648 1405 856.009 1386.52 C 856.449 1365.05 856.252 1343.58 855.419 1322.12 C 853.649 1282.7 849.483 1242.39 857.237 1203.25 C 860.738 1185.58 866.63 1156.26 877.053 1141.46 C 865.223 1178.83 859.708 1223.89 860.362 1263.03 C 860.647 1280.13 863.61 1299.85 864.307 1318.05 C 902.384 1287.71 948.736 1270.28 997.056 1265.24 C 946.656 1287.37 911.109 1294.22 864.915 1331.3 C 868.919 1348.85 867.826 1391.7 866.368 1410.23 L 875.859 1399.6 C 903.697 1368.22 938.436 1341.82 975.409 1321.53 C 1018.51 1297.88 1067.65 1289.92 1111.34 1273.32 C 1166.45 1252.38 1279.54 1209.54 1290.03 1144.67 C 1266.59 1138.34 1248.96 1136.26 1224.96 1133.09 C 1218.82 1135.78 1213.92 1137.96 1208.03 1141.15 C 1199.18 1105.92 1193.1 1089.04 1174.16 1057.68 C 1150.53 1018.53 1126.21 990 1086.42 966.149 C 1085.47 965.581 1084.52 965.018 1083.57 964.46 C 1143.64 983.201 1195.28 1056.45 1211.08 1115.42 C 1217.62 1094.89 1217.4 1079.07 1222.28 1062.17 C 1224.53 1088.12 1223.45 1094.27 1218.61 1119.84 C 1232.08 1121.75 1249.03 1123.33 1262.46 1126.66 C 1314.18 1139.49 1369.77 1148.96 1418.57 1170.49 C 1431.56 1176.22 1441.75 1184.58 1438.45 1199.5 C 1433.14 1225.59 1426.29 1232.48 1401.38 1239.89 C 1405.28 1256.62 1405.04 1259.35 1392.25 1271.2 C 1396.25 1273.68 1402.15 1276.8 1398.29 1281.92 C 1390.29 1284.79 1383.49 1283.5 1374.97 1282.86 C 1371.45 1301.58 1375.04 1320.87 1382.5 1338.24 C 1394.78 1329.37 1407.29 1318.95 1420.46 1311.54 C 1427.44 1307.61 1437.46 1306.05 1442.95 1300.13 C 1449.44 1293.13 1449.9 1281.15 1452.74 1272.33 C 1455.92 1262.48 1462.79 1253.11 1468.05 1244.18 C 1477.52 1228.1 1493.86 1197.51 1496.49 1179.38 C 1497.62 1171.53 1497.12 1163.52 1492.01 1157.16 C 1482.25 1144.99 1466.41 1136.65 1453.71 1127.68 C 1424.28 1106.88 1361.88 1058.77 1327.06 1055.43 C 1315.74 1054.34 1306.46 1056.92 1297.76 1064.22 C 1292.32 1068.78 1286.69 1075.25 1286.41 1082.74 C 1286.24 1087.33 1288.59 1091.29 1291.83 1094.38 C 1302.66 1104.68 1378.08 1127.9 1398.28 1136.67 C 1374.51 1132.6 1292.44 1115 1278.98 1095.58 C 1275.96 1091.24 1274.78 1085.99 1275.92 1080.81 C 1278.22 1070.3 1288.96 1060.9 1297.94 1055.56 C 1310.89 1047.84 1325.24 1045.75 1339.83 1049.69 C 1350 1052.43 1359.47 1057.37 1369.25 1061.18 C 1381.84 1034.96 1382.69 994.439 1371.92 968.044 C 1358.59 935.415 1345.76 909.46 1313.24 894.508 C 1273.47 876.224 1240.79 870.873 1199.77 859.087 C 1177.44 852.671 1149.35 839.671 1128.88 829.112 C 1123.99 830.729 1113.03 834.177 1109.07 836.939 C 1058.16 872.388 1024.99 931.532 984.218 976.477 C 954.226 1009.54 915.657 1043.38 880.515 1070.77 C 855.228 1090.47 826.786 1108.77 801.091 1128.45 C 786.798 1138.89 770.773 1148.38 756.811 1159.14 C 713.348 1192.63 668.12 1232.73 642.87 1282.68 C 614.958 1337.91 613.95 1423.94 645.703 1478.06 C 649.542 1484.6 654.207 1490.87 657.757 1497.61 C 675.844 1533.68 656.516 1581.07 640.761 1614.75 C 636.475 1623.91 628.899 1635.51 622.04 1642.92 C 615.503 1649.99 599.125 1658.22 595.879 1667.2 C 592.525 1679.38 596.878 1693.78 596.543 1706.26 C 596.325 1714.38 596.636 1723.44 595.328 1731.19 C 589.387 1766.39 583.333 1801.59 576.777 1836.67 C 573.724 1853 567.148 1869.99 564.903 1886.3 z M 1492.78 1005.19 C 1478.42 1008.47 1464.81 1013.68 1450.85 1018.39 C 1433.88 1023.98 1416.87 1029.41 1399.8 1034.68 C 1395.77 1047.47 1392.77 1056.7 1387.47 1069.12 C 1403.92 1079.26 1415.48 1086.07 1430.35 1098.42 L 1431.86 1098.02 C 1455.04 1091.8 1467.74 1078.42 1484 1067.94 C 1492.83 1062.25 1553.59 1113.71 1558.59 1124.11 C 1559.27 1125.54 1558.9 1132.12 1559.34 1134.36 C 1561.7 1133.76 1566.18 1132.13 1568.21 1133.67 C 1575.08 1138.91 1583.9 1146.51 1582.06 1156.09 C 1579.18 1159.77 1578.9 1159.26 1573.96 1159.78 C 1571.03 1162.2 1570.05 1164.26 1567.67 1166.41 C 1580.94 1179.32 1597.42 1188.44 1615.4 1192.82 C 1615.36 1178.31 1613.76 1163.74 1614.06 1149.48 C 1614.3 1138.13 1617.44 1124.74 1619.08 1113.09 C 1605.75 1095.63 1594.46 1092.21 1579.01 1077.25 C 1564.81 1063.36 1550.88 1049.19 1537.22 1034.76 C 1523.81 1020.73 1513.57 1003.55 1492.78 1005.19 z M 1107.26 599.995 C 1132.67 591.082 1148.41 598.037 1174.01 592.053 C 1180.22 590.602 1182.47 588.391 1187.55 586.121 L 1188.23 587.05 C 1179.92 596.159 1155.05 602.98 1143.51 609.977 C 1128.97 618.805 1116.77 628.21 1103.65 638.983 C 1087.14 655.025 1082.91 661.156 1069.35 680.159 C 1093.6 658.251 1120.78 641.17 1151.42 629.437 C 1166.05 623.834 1190.64 618.546 1202.75 609.136 C 1216.15 598.717 1221.77 584.51 1236.43 571.102 C 1232.2 569.63 1216.57 563.179 1214.05 563.364 C 1172.59 569.696 1140.54 572.495 1107.26 599.995 z M 600.962 1939.77 C 617.782 1943.35 628.262 1944.79 645.879 1945.42 C 667.377 1945.08 676.959 1943.64 698.264 1938.54 C 691.723 1917.98 679.316 1888.52 655.193 1885.2 C 648.775 1886.6 647.265 1888.75 642.23 1892.12 C 622.337 1905.43 611.562 1918.47 600.962 1939.77 z M 1328.65 1356.04 C 1336.54 1349.64 1359.72 1347.27 1371.28 1342.89 L 1370.88 1342.16 C 1369.82 1338.48 1369.52 1336.74 1366.66 1334.97 L 1364.02 1333.32 C 1359.21 1323.58 1360.32 1294.47 1360.75 1282.64 C 1362.08 1280.11 1362.24 1280.47 1364.72 1278.56 L 1365.27 1275.5 C 1362.34 1272.88 1358.71 1273.15 1354.53 1272.89 C 1339.53 1285.12 1336.91 1295.96 1332.6 1314.24 C 1329.83 1322.46 1327.17 1330.77 1328.87 1339.54 C 1326.24 1343.28 1327.67 1351.75 1328.65 1356.04 z M 646.774 1552.03 C 656.318 1521.59 638.164 1501.77 625.041 1476.58 C 619.256 1465.48 617.172 1447.03 611.125 1437.72 C 602.589 1461.63 610.116 1515.47 612.849 1542.33 C 624.232 1545.29 635.544 1548.53 646.774 1552.03 z M 1327.08 716.886 C 1341.57 741.073 1349.08 761.745 1375.56 773.767 C 1362.98 737.442 1353.4 716.165 1358.28 674.859 C 1328.75 674.252 1287.04 672.292 1270.77 642.608 C 1268.31 638.133 1266.35 631.641 1264.68 626.731 C 1250.52 649.838 1255.52 672.121 1260.92 697.042 C 1247.22 688.275 1243.83 679.62 1237.42 664.994 C 1235.93 668.416 1234.41 672.124 1232.76 675.441 C 1219.77 658.975 1219.25 638.236 1220.65 618.193 C 1220.9 614.547 1222.71 608.985 1220.19 606.799 C 1196.64 626.447 1179.54 627.021 1152.36 637.405 C 1119.91 649.801 1065.12 690.802 1049.25 722.794 C 1068.4 715.796 1084.39 707.458 1104.76 700.442 C 1068.2 735.69 1036.43 773.804 1024.19 824.459 C 1053.69 794.173 1060.93 769.896 1101.55 743.191 C 1063.16 785.729 1040.95 836.706 1032.7 893.286 C 1056.46 865.283 1083.41 825.761 1121.97 817.881 C 1133.84 790.663 1142.97 768.774 1151.96 740.109 C 1150.57 756.806 1147.4 773.306 1142.5 789.327 C 1139.91 797.855 1135.66 809.304 1133.64 817.56 C 1144.72 821.047 1158.22 829.682 1169.62 834.044 C 1195.32 843.874 1222.08 852.271 1248.75 858.913 C 1294.87 871.556 1334.7 882.557 1372.4 915.232 C 1382.19 923.718 1388.33 932.639 1396.74 940.851 C 1397.18 901.532 1380.72 861.884 1352.94 834.352 C 1350.62 832.055 1336.56 819.279 1336.26 818.162 C 1339.44 818.096 1348.3 825.192 1352.09 827.328 C 1366.26 835.303 1380.3 843.542 1394.52 851.427 C 1386.69 839.19 1364.5 817.414 1354 805.43 C 1341.71 791.392 1332.49 777.175 1321.19 763.433 C 1330.88 769.439 1353.07 794.68 1366.73 805.038 C 1359.57 788.707 1352.31 777.77 1343.99 762.634 C 1338.07 751.856 1330.22 729.178 1327.08 716.886 z M 1561.09 1238.73 L 1561.23 1240.42 L 1562.35 1241.56 C 1568.75 1240.99 1582.17 1235.28 1586.33 1230.23 L 1584.42 1228.36 C 1585.57 1227.89 1586.69 1227.77 1587.91 1227.6 C 1588.78 1225.85 1589.48 1224.07 1590.13 1222.23 L 1593.92 1221.17 C 1603.14 1222.93 1613.9 1212.19 1619.71 1205.7 C 1597.62 1197.66 1581.58 1191.97 1563.96 1175.44 C 1554.87 1191.1 1555.74 1208.34 1557.05 1226.04 C 1557.32 1229.62 1558.53 1236.22 1561.09 1238.73 z M 1283.76 492.497 C 1297.86 481.349 1298.98 481.475 1315.72 475.061 C 1293.23 467.529 1276.99 463.768 1253.51 473.087 C 1242.39 477.498 1217.7 494.208 1213.36 505.254 C 1231.88 502.479 1237.51 473.138 1259.72 480.332 C 1260.62 484.783 1260.55 484.546 1263.91 487.646 C 1262.87 488.732 1263.26 488.065 1262.87 489.721 C 1268.01 492.67 1277.71 492.367 1283.76 492.497 z M 1391.77 997.986 C 1393.46 985.852 1394.78 973.669 1395.74 961.454 C 1387.11 950.619 1368.58 924.952 1355.39 921.767 C 1357.02 927.213 1363.22 935.215 1366.56 940.425 C 1374.64 953.044 1381.78 966.58 1385.62 981.18 C 1387.3 987.565 1387.61 993.422 1389.97 999.71 L 1391.06 1000.06 L 1391.77 997.986 z M 598.628 1644.91 C 601.242 1643.21 605.396 1640.7 607.675 1638.8 C 616.209 1629.86 619.773 1625.38 624.804 1613.87 C 619.718 1612.7 614.967 1611.43 609.765 1610.99 C 607.311 1623.06 602.351 1633.34 598.628 1644.91 z M 1481.73 533.864 C 1485.9 530.726 1490.04 528.144 1492.92 523.882 L 1493.08 521.571 C 1491.29 520.185 1491.79 520.241 1489.78 519.625 C 1485.31 522.873 1479.55 526.755 1477.82 532.116 L 1478.57 533.707 L 1481.73 533.864 z M 958.41 1905.41 C 977.859 1904.46 988.824 1901.5 1007.38 1895.36 C 1002.01 1884.25 979.847 1846.86 966.526 1846.79 C 944.446 1858.27 925.794 1878.68 917.095 1901.98 C 933.293 1904.99 942.17 1905.21 958.41 1905.41 z M 1258.26 509.078 L 1264.01 507.371 L 1263.96 506.615 L 1262.64 506.349 C 1253.9 504.53 1249.07 503.499 1246.65 494.086 C 1243.58 496.73 1241.13 498.2 1239.9 501.971 C 1241.09 509.97 1251.73 509.339 1258.26 509.078 z M 783.682 1608.2 C 787.061 1600.58 795.009 1584.03 792.506 1575.74 C 788.435 1580.31 771.972 1599.5 771.196 1604.52 C 771.47 1604.97 772.203 1606.27 772.54 1606.55 C 776.107 1607.04 780.189 1607.5 783.682 1608.2 z M 1322.7 1163.5 L 1331.22 1155.55 C 1320.9 1152.38 1310.54 1149.04 1300.05 1146.49 C 1302.6 1154.83 1306.25 1165.67 1308.07 1174 C 1314.28 1170.12 1317.1 1168.18 1322.7 1163.5 z M 644.318 1569.03 C 633.775 1565.94 624.275 1563.09 613.511 1560.8 C 613.269 1571.09 613.278 1581.39 613.538 1591.68 C 620.926 1593.46 632.169 1599.45 635.376 1591.71 C 638.211 1584.25 641.084 1576.27 644.318 1569.03 z M 1499.58 450.936 L 1500.27 448.337 C 1497.42 443.658 1482.33 436.397 1478.54 439.783 C 1466.99 450.079 1466.94 458.783 1449.66 464.269 C 1406.51 477.964 1360.94 479.474 1316.59 485.831 C 1312.62 486.4 1303.52 492.792 1300.03 495.364 C 1269.48 521.4 1268.29 533.286 1223.53 524.264 C 1203.54 520.236 1198.01 514.152 1181.64 507.669 C 1186.7 524.969 1196.19 536.616 1211.98 545.27 C 1249.22 565.674 1265.01 544.827 1289.2 553.084 C 1281.12 559.033 1271.45 562.516 1264.12 568.098 C 1237.55 588.339 1232.18 622.773 1238.81 652.538 C 1241.99 635.375 1252.45 610.683 1273.58 611.948 C 1277.63 614.55 1278.23 630.193 1281.05 634.33 C 1306.33 671.25 1404.39 664.976 1426.16 626.041 C 1441.76 598.139 1442.07 583.104 1480.81 574.855 C 1494.52 571.933 1538.54 567.926 1529.77 546.846 C 1524.86 545.545 1505.64 553.191 1498.15 554.125 C 1483.37 555.833 1468.47 556.411 1453.6 555.854 C 1460.05 533.173 1476.99 514.96 1496.85 502.926 C 1505.74 497.543 1515.01 493.276 1522.56 486.136 C 1520.15 476.315 1516.97 463.91 1509.2 456.864 L 1507.03 457.178 C 1507 458.645 1507.15 458.341 1506.7 459.505 C 1503.29 468.469 1506.03 479.764 1508.15 488.822 C 1504.93 484.045 1501.64 479.308 1498.29 474.611 C 1486.07 472.536 1481.11 470.227 1489.03 456.835 C 1491.46 452.723 1495.11 451.666 1499.58 450.936 z M 603.906 1331.1 C 558.071 1346.19 525.029 1372.02 501.902 1415.08 C 468.827 1476.67 499.791 1527.95 484.913 1594.64 C 472.15 1651.85 432.452 1676.65 435.146 1735.28 C 451.811 1694.07 472.873 1672.13 506.362 1643.3 C 500.199 1653.08 491.708 1665.39 486.469 1675.28 C 470.169 1707.39 457.299 1745.62 479.961 1778.12 C 479.949 1767.71 482.362 1722.05 487.562 1716.54 C 490.864 1721.11 490.385 1733.39 490.333 1739.17 C 517.182 1700.15 561.628 1681.98 583.408 1640.67 C 622.976 1565.63 569.504 1498.06 607.867 1418.84 C 605.517 1400.94 604.109 1386.8 605.448 1368.34 C 606.306 1356.52 609.376 1343.17 609.678 1331.71 C 607.729 1330.22 607.161 1330.89 603.906 1331.1 z M 967.024 1344.29 C 936.29 1362.05 888.183 1402.39 869.687 1432.19 C 862.267 1444.14 852.914 1468.17 846.552 1482.09 C 835.73 1505.91 823.281 1528.97 809.294 1551.08 C 808.332 1599.77 792.912 1627.79 762.789 1664.65 C 758.388 1670.03 750.553 1683.96 753.101 1688.64 C 759.905 1701.12 776.794 1718.99 784.941 1731.52 C 812.889 1774.51 840.45 1814.18 857.436 1862.75 C 857.809 1862.55 858.182 1862.34 858.555 1862.14 C 863.11 1861.73 869.7 1849.41 871.573 1850.38 C 877.682 1853.54 885.162 1863.8 888.144 1869.43 L 888.905 1870.85 C 893.481 1880.23 897.575 1890.23 904.417 1898 C 919.44 1873.91 917.953 1867.9 941.251 1848.12 C 933.895 1846.62 924.223 1844.7 918.589 1839.35 C 888.628 1810.91 866.237 1770.49 842.418 1737.21 C 811.712 1694.32 817.702 1685.8 847.92 1645.9 C 864.37 1624.18 881.82 1602.32 899.343 1581.19 C 943.997 1525.35 971.047 1466.27 968.886 1393.19 C 968.466 1379 969.065 1358.77 967.357 1344.72 L 967.024 1344.29 z" fill="rgb(111,24,64)" transform="translate(0,0)"></path>
<path d="M 1246.25 1157.06 C 1246.52 1158.17 1246.39 1159.06 1245.6 1160.05 C 1213.34 1200.3 1166.7 1228.12 1119.3 1247.24 C 1087.71 1259.99 1054.36 1269.23 1022.26 1280.61 C 988.879 1292.45 957.562 1304.21 922.932 1312.19 C 924.342 1308.56 971.444 1289.35 979.024 1286.07 C 1052.51 1254.22 1135.47 1243.97 1199.82 1192.86 C 1215.42 1180.47 1231.02 1167.59 1246.25 1157.06 z" fill="rgb(111,24,64)" transform="translate(0,0)"></path>
<path d="M 638.353 1365.55 C 639.229 1367.24 641.438 1398.39 641.98 1403.01 C 644.82 1427.28 653.198 1448.86 658.246 1472.36 C 640.822 1448.22 632.854 1394.33 638.353 1365.55 z" fill="url(#Gradient1)" transform="translate(0,0)"></path>
<path d="M 612.133 1663.74 C 612.738 1666.45 608.007 1701.55 606.733 1705.33 C 606.609 1704.89 606.485 1704.45 606.36 1704 C 607.06 1691.2 604.307 1673.99 612.133 1663.74 z" fill="rgb(118,10,41)" fill-opacity="0.964706" transform="translate(0,0)"></path>
<path d="M 579.312 1855.7 C 580.249 1860.44 577.446 1876.43 576.56 1882.21 C 571.83 1872.96 576.166 1865.01 579.312 1855.7 z" fill="rgb(146,24,53)" fill-opacity="0.956863" transform="translate(0,0)"></path>
<path d="M 1183.24 657.671 C 1184.21 661.216 1184.46 677.237 1184.66 681.641 C 1185.49 700.046 1185.92 715.004 1190.6 732.983 C 1192.88 723.936 1193.78 718.941 1197.77 710.49 C 1213.02 741.369 1229.3 765.685 1259.03 785.616 C 1261.61 787.344 1262.72 787.791 1265.15 787.163 C 1266.21 781.815 1258.35 770.778 1255.17 765.596 C 1262.51 771.758 1270.25 777.416 1278.35 782.532 C 1292.72 791.5 1312.12 801.005 1323.39 812.972 L 1324.74 815.169 L 1324.15 815.963 C 1309.29 812.541 1299.01 802.422 1289.74 801.25 L 1288.47 802.353 C 1288.89 804.976 1289.07 805.861 1289.06 808.493 L 1287.15 808.909 C 1264.83 801.758 1238.14 786.565 1222.76 768.795 C 1215.99 760.97 1208.53 750.596 1201.64 742.241 C 1202.15 751.413 1203.42 759.1 1204.82 768.135 L 1203.27 768.733 C 1197.23 766.853 1195.44 764.394 1192.17 758.9 C 1176.18 731.978 1174.74 687.031 1183.24 657.671 z" fill="rgb(111,24,64)" transform="translate(0,0)"></path>
<path d="M 826.176 1536.58 C 828.598 1542.23 826.308 1555.25 825.608 1561.52 C 820.131 1610.56 795.781 1646.12 769.402 1685.87 C 777.059 1694.33 810.711 1745.95 811.155 1754.24 L 809.147 1752.4 C 794.647 1730.83 778.624 1709.22 763.302 1688.3 C 759.254 1682.77 772.272 1665.35 776.043 1660.09 C 792.84 1636.66 806.027 1609.83 813.777 1581.97 C 818.086 1565.78 820.278 1552.96 826.176 1536.58 z" fill="rgb(111,24,64)" transform="translate(0,0)"></path>
<path d="M 848.452 1818.52 C 855.55 1824.26 860.465 1837.71 868.929 1843.74 L 874.727 1847.83 C 870.253 1848.32 866.527 1847.13 862.082 1846.17 C 854.135 1837.13 852.158 1829.71 848.452 1818.52 z" fill="rgb(146,24,53)" transform="translate(0,0)"></path>
<path d="M 514.613 1594 C 505.059 1549.1 490.652 1505.47 499.442 1458.92 C 509.888 1403.6 546.084 1360.42 604.178 1355.14 C 542.396 1384.52 539.785 1399.51 517.237 1459.25 C 518.055 1443.48 522.494 1430.61 526.405 1415.51 C 526.473 1415.25 525.336 1413.5 525.009 1413.16 L 524.424 1412.99 C 505.367 1437.72 503.831 1484.61 508.107 1513.98 C 511.84 1539.62 517.968 1568.05 514.613 1594 z" fill="rgb(111,24,64)" transform="translate(0,0)"></path>
<path d="M 543.458 1388.99 L 527.222 1413.51 L 525.009 1413.16 L 524.424 1412.99 C 527.342 1404.89 537.173 1394.96 543.458 1388.99 z" fill="rgb(253,253,253)" transform="translate(0,0)"></path>
<path d="M 550.398 1498.85 C 565.033 1546.41 581.017 1590.63 556.155 1639.37 C 545.19 1660.87 533.191 1664.5 515.393 1677.42 L 512.595 1674.51 C 515.654 1671.61 518.751 1668.44 521.856 1665.63 C 571.809 1620.33 550.902 1558.37 550.398 1498.85 z" fill="rgb(111,24,64)" transform="translate(0,0)"></path>
<path d="M 501.371 1687 L 512.595 1674.51 L 515.393 1677.42 L 501.371 1687 z" fill="rgb(146,24,53)" fill-opacity="0.945098" transform="translate(0,0)"></path>
<path d="M 1345.19 503.206 C 1354.11 501.981 1358.65 502.718 1366.58 506.827 L 1366.33 504.047 L 1367.4 503.48 C 1371.39 505.162 1372.71 506.926 1373 511.245 L 1371.79 512.351 C 1367.4 511.046 1365.39 509.692 1361.48 512.383 C 1359.55 516.381 1359.81 517.997 1359.57 522.573 C 1364.71 522.177 1368.28 515.351 1375.15 515.611 C 1381.56 521.505 1371.08 530.559 1366.45 534.782 C 1353.83 541.793 1347.62 541.673 1333.63 540.743 C 1322.35 525.071 1323.99 535.642 1316.17 535.682 C 1302.57 527.344 1337.9 505.996 1345.19 503.206 z" fill="rgb(111,24,64)" transform="translate(0,0)"></path>
<path d="M 1508.15 488.822 C 1504.93 484.045 1501.64 479.308 1498.29 474.611 C 1486.07 472.536 1481.11 470.227 1489.03 456.835 C 1491.46 452.723 1495.11 451.666 1499.58 450.936 C 1501.9 453.707 1504.13 455.073 1507.03 457.178 C 1507 458.645 1507.15 458.341 1506.7 459.505 C 1503.29 468.469 1506.03 479.764 1508.15 488.822 z" fill="rgb(111,24,64)" transform="translate(0,0)"></path>
<path d="M 1334.54 1315.86 C 1336.95 1308.78 1341.7 1296.9 1346.38 1291.26 C 1343.27 1299.71 1325.35 1342.96 1340.31 1347.41 C 1346.24 1349.17 1362.43 1341.83 1370.88 1342.16 L 1371.28 1342.89 C 1359.72 1347.27 1336.54 1349.64 1328.65 1356.04 C 1327.67 1351.75 1326.24 1343.28 1328.87 1339.54 C 1330.18 1339.86 1329.38 1339.75 1331.29 1339.57 C 1333.39 1333.23 1333.98 1322.73 1334.54 1315.86 z" fill="rgb(146,24,53)" fill-opacity="0.968627" transform="translate(0,0)"></path>
<path d="M 1360.75 1282.64 C 1362.08 1280.11 1362.24 1280.47 1364.72 1278.56 C 1365.04 1293.7 1364.82 1308.65 1366.88 1323.71 C 1367.4 1327.47 1368.49 1331.6 1366.66 1334.97 L 1364.02 1333.32 C 1359.21 1323.58 1360.32 1294.47 1360.75 1282.64 z" fill="rgb(253,253,253)" transform="translate(0,0)"></path>
<path d="M 1354.53 1272.89 C 1358.71 1273.15 1362.34 1272.88 1365.27 1275.5 L 1364.72 1278.56 C 1362.24 1280.47 1362.08 1280.11 1360.75 1282.64 L 1360.36 1277.47 C 1357.98 1275.43 1359.33 1275.89 1356.17 1276.06 C 1351.04 1279.18 1348.33 1283.45 1345.67 1288.77 C 1346.03 1289.74 1346.14 1290.25 1346.38 1291.26 C 1341.7 1296.9 1336.95 1308.78 1334.54 1315.86 L 1333.77 1316.33 L 1332.6 1314.24 C 1336.91 1295.96 1339.53 1285.12 1354.53 1272.89 z" fill="rgb(253,253,253)" fill-opacity="0.0196078" transform="translate(0,0)"></path>
<path d="M 1561.09 1238.73 C 1564.36 1229.65 1557.53 1207.49 1562.29 1193.84 C 1563.57 1196.09 1563.11 1197.86 1562.96 1200.54 L 1562.89 1201.77 C 1561.96 1207 1561.43 1214.84 1562.6 1220.04 C 1564.16 1226.81 1564.92 1230.19 1564.28 1237.42 C 1577.94 1229.01 1590.8 1219.84 1604.55 1211.73 L 1604.69 1212.27 C 1601.21 1215.36 1597.62 1218.33 1593.92 1221.17 L 1590.13 1222.23 C 1589.48 1224.07 1588.78 1225.85 1587.91 1227.6 C 1586.69 1227.77 1585.57 1227.89 1584.42 1228.36 C 1580.06 1228.22 1567.14 1237.6 1561.23 1240.42 L 1561.09 1238.73 z" fill="rgb(118,10,41)" fill-opacity="0.968627" transform="translate(0,0)"></path>
<path d="M 1328.65 1356.04 C 1336.54 1349.64 1359.72 1347.27 1371.28 1342.89 L 1371.59 1345.24 C 1364.19 1350.15 1339.51 1355.58 1330.56 1356.88 L 1328.65 1356.04 z" fill="rgb(253,253,253)" transform="translate(0,0)"></path>
<path d="M 1259.72 480.332 C 1268.02 479.293 1276.38 478.972 1284.73 479.372 C 1278.01 481.986 1270.14 484.444 1263.91 487.646 C 1260.55 484.546 1260.62 484.783 1259.72 480.332 z" fill="rgb(111,24,64)" fill-opacity="0.988235" transform="translate(0,0)"></path>
<path d="M 1561.23 1240.42 C 1567.14 1237.6 1580.06 1228.22 1584.42 1228.36 L 1586.33 1230.23 C 1582.17 1235.28 1568.75 1240.99 1562.35 1241.56 L 1561.23 1240.42 z" fill="rgb(253,253,253)" fill-opacity="0.984314" transform="translate(0,0)"></path>
<path d="M 1332.6 1314.24 L 1333.77 1316.33 L 1334.54 1315.86 C 1333.98 1322.73 1333.39 1333.23 1331.29 1339.57 C 1329.38 1339.75 1330.18 1339.86 1328.87 1339.54 C 1327.17 1330.77 1329.83 1322.46 1332.6 1314.24 z" fill="rgb(253,253,253)" fill-opacity="0.290196" transform="translate(0,0)"></path>
<path d="M 1562.89 1201.77 C 1562.91 1206.31 1563.18 1215.91 1562.6 1220.04 C 1561.43 1214.84 1561.96 1207 1562.89 1201.77 z" fill="rgb(146,24,53)" fill-opacity="0.713725" transform="translate(0,0)"></path>
<path d="M 1033.28 61.511 C 1044.79 61.3579 1056.25 63.0805 1067.21 66.6112 C 1109.75 80.4178 1138.81 122.691 1139.91 166.676 C 1140.49 189.639 1133.46 200.558 1126.51 221.521 C 1148.01 231.396 1172.81 244.849 1193.84 255.778 L 1322.59 323.43 C 1335.78 309.98 1353.05 306.711 1368.39 319.155 C 1375.82 325.143 1380.42 333.954 1381.09 343.473 C 1383.95 383.631 1327.87 394.854 1316.61 356.021 C 1315.27 351.384 1315.28 345.518 1315.12 340.637 C 1306.63 337.035 1296.62 332.024 1288.61 327.471 C 1231.74 295.16 1171.41 267.601 1114.36 235.921 C 1089.94 262.129 1066.54 275.785 1029.38 274.552 C 995.407 273.424 974.795 261.192 952.065 236.654 C 915.407 253.743 876.665 273.743 840.208 291.668 C 764.435 329.483 688.167 366.295 611.422 402.096 L 453.362 477.937 C 428.506 489.638 403.486 500.778 378.993 513.358 C 367.628 519.195 353.673 525.107 343.156 532.069 L 344.955 545.956 L 759.134 680.992 C 771.513 667.308 783.176 657.23 803.161 658.713 C 813.908 659.408 823.921 664.404 830.94 672.572 C 857.454 703.724 834.404 754.091 789.355 747.427 C 724.095 861.428 657.402 974.604 589.292 1086.93 L 506.946 1225.32 C 492.949 1248.55 478.087 1274 463.178 1296.5 L 441.814 1330.89 C 462.562 1348.53 464.54 1378.99 442.856 1396.82 C 401.48 1430.85 342.094 1379.33 378.453 1335.17 C 381.157 1331.89 386.083 1328.45 389.546 1325.83 C 385.149 1316.9 381.02 1307.69 377.157 1298.51 C 349.095 1231.85 319.49 1165.82 290.34 1099.64 L 224.171 949.016 C 212.305 922.051 198.363 893.219 188.017 865.799 C 178.681 866.755 172.303 867.53 162.972 865.111 C 150.772 861.883 140.436 853.781 134.388 842.704 C 128.347 831.446 127.225 818.193 131.285 806.079 C 134.996 794.491 143.287 784.925 154.23 779.606 C 182.562 765.542 207.328 777.295 220.753 804.778 C 253.888 798.924 287.262 791.796 320.409 785.646 L 587.845 735.942 L 723.92 709.728 C 728.972 708.734 752.323 705.089 754.788 703.74 L 754.484 702.11 C 745.384 694.674 638.235 663.133 617.432 656.301 C 524.954 625.049 432.256 594.452 339.345 564.511 C 337.615 567.565 335.651 570.482 333.472 573.234 C 307.262 606.843 253.14 591.615 249.448 547.651 C 248.338 535.023 252.286 522.47 260.426 512.751 C 281.454 488.052 311.78 491.857 334.4 511.798 C 351.097 506.051 379.758 491.359 395.855 483.472 L 487.031 439.283 C 598.343 387.176 709.251 334.213 819.746 280.399 C 844.417 268.513 868.96 256.361 893.37 243.947 C 906.47 237.35 927.448 226.056 940.645 221.496 C 905.714 145.199 947.231 64.9031 1033.28 61.511 z M 222.463 823.345 C 221.051 838.728 216.607 848.553 204.146 858.286 L 353.316 1195.69 C 367.028 1226 380.456 1256.15 393.269 1286.85 C 397.752 1297.59 403.264 1308.14 407.658 1318.91 C 414.8 1319.37 421.891 1320.42 428.856 1322.07 C 444.064 1288.42 465.159 1260.11 483.751 1228.44 L 621.532 997.226 L 725.542 820.968 C 736.247 802.72 760.962 756.172 772.137 741.94 L 771.046 740.92 C 764.95 735.161 758.966 723.344 752.017 724.34 L 387.455 792.8 L 271.688 814.315 C 258.051 816.863 235.103 820.231 222.463 823.345 z" fill="rgb(111,24,64)" transform="translate(0,0)"></path>
<path d="M 429.732 891.426 C 443.042 888.884 455.87 897.687 458.286 911.02 C 460.701 924.354 451.777 937.097 438.421 939.386 C 425.243 941.644 412.707 932.865 410.323 919.709 C 407.94 906.554 416.6 893.934 429.732 891.426 z" fill="rgb(111,24,64)" transform="translate(0,0)"></path>
<path d="M 433.857 116.09 C 464.07 113.78 490.391 136.503 492.515 166.73 C 494.64 196.958 471.756 223.138 441.516 225.077 C 411.538 226.999 385.633 204.356 383.527 174.39 C 381.421 144.424 403.904 118.381 433.857 116.09 z" fill="rgb(111,24,64)" transform="translate(0,0)"></path>
<path d="M 1641.19 648.379 C 1670.17 644.926 1696.52 665.505 1700.18 694.465 C 1703.85 723.424 1683.46 749.917 1654.53 753.794 C 1625.3 757.712 1598.47 737.068 1594.76 707.807 C 1591.06 678.545 1611.9 651.868 1641.19 648.379 z" fill="rgb(111,24,64)" transform="translate(0,0)"></path>
<path d="M 139.436 1118.3 C 154.086 1115.58 168.221 1125.08 171.246 1139.67 C 174.27 1154.26 165.074 1168.59 150.551 1171.92 C 140.882 1174.13 130.771 1170.95 124.119 1163.59 C 117.468 1156.23 115.316 1145.85 118.494 1136.45 C 121.672 1127.06 129.683 1120.11 139.436 1118.3 z" fill="rgb(111,24,64)" transform="translate(0,0)"></path>
<path d="M 1738.87 226.603 C 1753.62 223.244 1768.29 232.55 1771.54 247.333 C 1774.79 262.115 1765.38 276.715 1750.57 279.856 C 1735.92 282.963 1721.51 273.668 1718.29 259.04 C 1715.07 244.411 1724.26 229.927 1738.87 226.603 z" fill="rgb(111,24,64)" transform="translate(0,0)"></path>
<path d="M 234.33 1533.67 C 236.253 1536.31 240.949 1550.03 242.402 1553.98 C 251.664 1554.06 257.72 1554.1 266.817 1555.31 C 259.739 1560.53 253.966 1565.03 247.245 1570.7 C 249.989 1579.17 251.656 1585.09 253.59 1593.77 C 247.072 1590.25 239.653 1585.39 233.266 1581.43 C 231.552 1582.02 216.721 1591.29 214.436 1592.7 C 216.783 1585.17 218.812 1576.1 220.746 1568.35 C 212.329 1563.12 207.787 1560.31 200.296 1553.97 C 208.955 1555.35 214.827 1555.09 223.488 1554.81 C 228.468 1547.73 230.893 1541.54 234.33 1533.67 z" fill="rgb(111,24,64)" transform="translate(0,0)"></path>
<path d="M 798.282 438.486 C 802.081 441.718 804.723 452.934 808.151 459.569 C 816.349 459.367 821.556 459.441 829.708 460.078 C 824.363 464.761 815.717 470.413 809.662 474.714 C 812.51 482.045 815.563 488.46 818.4 496.195 C 810.526 492.565 806.574 489.617 799.488 484.48 L 797.549 483.901 C 793.97 485.271 783.227 493.507 779.202 496.313 C 780.827 489.547 782.985 480.46 785.785 474.255 C 781.811 471.23 772.522 465.051 771.446 460.426 L 772.93 458.858 C 778.122 457.211 784.931 457.862 790.569 457.982 L 798.282 438.486 z" fill="rgb(111,24,64)" transform="translate(0,0)"></path>
<path d="M 1908.34 776.271 C 1916.46 775.104 1924.04 780.609 1925.44 788.695 C 1926.85 796.781 1921.57 804.516 1913.52 806.153 C 1908.11 807.256 1902.52 805.327 1898.94 801.119 C 1895.36 796.911 1894.35 791.089 1896.31 785.921 C 1898.26 780.753 1902.87 777.056 1908.34 776.271 z" fill="rgb(111,24,64)" transform="translate(0,0)"></path>
<path d="M 1329.15 1534.29 C 1346.35 1538.06 1350.76 1555.24 1331.38 1562.8 C 1310.06 1559.12 1310.34 1539.17 1329.15 1534.29 z" fill="rgb(111,24,64)" transform="translate(0,0)"></path>
<metadata><recraft-signature>{"signed_by": "recraft", "signature_b64": "yFGSb90NGWEVqrfXlT+avtaZJjOd7wp74W1Je4QiRn+QAoOeBRWImki337Sd/npBXMBkLtjXbYkaW3ur/jB3Aw==", "signing_algo": "Ed25519", "generation_timestamp": 1777813495, "identifier": "ae1bd887-9e90-4541-b3a9-4339cb0032dc"}</recraft-signature></metadata></svg>