<svg xmlns="http://www.w3.org/2000/svg" height="1024" preserveAspectRatio="none" style="display: block;" version="1.1" viewBox="0 0 2048 2048" width="1024">
<defs>
	<linearGradient gradientUnits="userSpaceOnUse" id="Gradient1" x1="929.161" x2="931.242" y1="1136.04" y2="1129.76">
		<stop class="stop0" offset="0" stop-color="rgb(27,27,26)" stop-opacity="0.913725"></stop>
		<stop class="stop1" offset="1" stop-color="rgb(30,27,28)" stop-opacity="0.952941"></stop>
	</linearGradient>
	<linearGradient gradientUnits="userSpaceOnUse" id="Gradient2" x1="794.433" x2="778.86" y1="699.117" y2="698.494">
		<stop class="stop0" offset="0" stop-color="rgb(30,28,28)" stop-opacity="0.901961"></stop>
		<stop class="stop1" offset="1" stop-color="rgb(29,28,27)" stop-opacity="0.976471"></stop>
	</linearGradient>
	<linearGradient gradientUnits="userSpaceOnUse" id="Gradient3" x1="1291.45" x2="1271.61" y1="1055.43" y2="1056.45">
		<stop class="stop0" offset="0" stop-color="rgb(31,29,28)" stop-opacity="0.933333"></stop>
		<stop class="stop1" offset="1" stop-color="rgb(29,28,27)" stop-opacity="1"></stop>
	</linearGradient>
	<linearGradient gradientUnits="userSpaceOnUse" id="Gradient4" x1="1093.53" x2="1122.04" y1="1268.99" y2="1418.47">
		<stop class="stop0" offset="0" stop-color="rgb(220,220,219)" stop-opacity="0.901961"></stop>
		<stop class="stop1" offset="1" stop-color="rgb(221,221,219)" stop-opacity="1"></stop>
	</linearGradient>
	<linearGradient gradientUnits="userSpaceOnUse" id="Gradient5" x1="1507.89" x2="539.114" y1="-211.456" y2="2258.46">
		<stop class="stop0" offset="0" stop-color="rgb(27,26,26)" stop-opacity="0.756863"></stop>
		<stop class="stop1" offset="1" stop-color="rgb(29,27,27)" stop-opacity="1"></stop>
	</linearGradient>
</defs>
<path d="M 0 0 L 243 0 L 1590.8 0 L 2048 0 L 2048 464.967 L 2048 2048 L 0 2048 L 0 121.521 L 0 0 z M 798.803 660.981 C 798.181 659.789 797.011 656.067 795.905 655.863 C 791.631 655.078 792.888 664.86 790.507 666.16 C 789.944 665.62 789.962 664.074 789.887 663.476 C 789.852 663.189 789.826 662.783 789.654 662.533 L 789.585 662.541 C 788.086 666.689 785.446 671.71 785.082 675.989 C 784.545 682.286 783.409 685.011 780.233 690.346 C 776.232 697.065 776.552 704.872 778.011 712.516 C 778.542 715.299 782.165 722.653 783.519 725.656 C 787.649 731.55 782.828 742.797 791.939 739.168 C 803.984 762.491 821.266 776.967 847.064 783.419 L 846.159 784.889 C 842.117 791.142 847.953 789.291 845.983 790.996 C 841.019 794.863 861.072 795.214 861.997 795.334 C 863.549 795.536 869.154 795.249 871.497 795.386 C 875.963 795.647 887.115 794.905 890.003 791 C 897.059 789.506 895.137 796.838 902.648 793.687 C 907.087 791.825 907.937 789.489 912.417 787.691 C 913.171 787.315 913.925 786.94 914.678 786.564 C 917.197 785.942 929.098 774.433 929.411 773.04 C 927.977 768.588 922.78 771.17 932.814 760.274 C 936.395 756.385 936.316 757.564 938.301 752.668 C 938.887 751.224 941.732 746.247 937.023 747.217 C 937.871 746.496 930.025 758.42 930.504 757.488 C 925.148 767.895 913.904 772.553 904.224 778.488 C 904.906 776.912 905.543 775.421 906.289 773.869 C 926.464 761.206 935.981 744.765 943.449 723.047 L 965.08 722.896 C 969.146 722.975 973.213 722.992 977.28 722.946 C 982.938 722.904 988.57 722.99 994.23 722.831 C 998.364 722.932 1002.5 722.96 1006.63 722.916 L 1173.82 722.944 C 1176.77 735.342 1179.25 741.793 1187.23 752.125 C 1170.2 771.025 1153.65 790.355 1137.6 810.098 C 1127.93 800.397 1130.28 810.498 1121.65 815.2 C 1115.39 818.612 1120.19 822.872 1121.73 825.402 C 1119.36 828.831 1115.88 827.153 1112.38 834.361 C 1110.21 838.812 1098.78 841.808 1102.55 851.182 L 1102.27 851.713 L 1098.92 850.569 C 1096.5 852.339 1096.37 852.611 1094.39 854.919 C 1091.82 855.109 1092.72 855.24 1090.26 854.576 C 1086.34 858.458 1085.57 870.738 1082.52 872.287 C 1072.82 877.204 1058.79 894.634 1053.5 904.062 C 1046.26 916.941 1037.7 921.399 1028.09 931.865 C 1023.65 936.705 1018.84 944.289 1015.13 949.77 C 1012.6 949.957 1010.06 950.078 1007.52 950.132 C 1006.47 952.748 1006.55 959.54 1007.56 962.119 C 1005.43 960.788 1003.16 956.593 1000.52 960.004 C 997.854 963.456 995.607 964.906 992.653 967.796 C 986.179 966.16 992.972 965.47 984.022 966.299 C 975.231 967.113 973.934 970.549 969.004 970.536 C 958.451 970.51 964.346 973.289 961.282 975.34 C 937.651 973.844 923.895 975.627 902.432 987.772 C 901.817 988.121 898.236 990.232 897.858 990.375 C 893.064 989.079 892.393 991.707 889.554 990.898 C 889.036 990.305 889.37 989.321 889.139 988.242 C 885.737 986.534 869.962 1005.28 870.342 1008.03 C 871.448 1008.79 873.412 1006.29 876.101 1006.41 C 877.464 1007.45 877.374 1008.92 879.67 1010.76 C 875.455 1018.14 872.817 1023.36 870.314 1031.55 C 869.992 1032.6 867.546 1041.53 867.43 1041.79 C 866.933 1040.83 867.148 1039.94 866.096 1039.99 C 865.562 1040.75 864.394 1053.7 865.006 1055.99 C 865.832 1056.52 865.298 1066.9 866.217 1066.03 C 862.404 1069.64 865.094 1079.31 864.322 1082.99 C 863.749 1085.73 873.409 1092.48 874.979 1093.15 C 872.243 1095.65 871.95 1092.85 870.02 1094.35 C 868.482 1098.35 875.059 1098.98 875.78 1099.34 C 876.927 1101.07 873.671 1102.54 872.516 1103.04 C 867.541 1111.86 867.082 1105.81 863.242 1112.64 C 859.621 1119.09 846.271 1128.79 846.068 1136.03 L 846.412 1136.29 C 848.907 1134.86 850.061 1128.7 854.328 1127.23 C 857.083 1126.27 858.49 1120.01 861.959 1120.49 C 863.803 1120.53 864.87 1113.97 867.37 1112.64 C 870.752 1112.81 869.25 1116.28 873.827 1114.74 C 862.199 1129.68 849.346 1143.9 837.903 1158.72 C 835.466 1160.83 830.15 1168.16 828.154 1170.9 C 825.987 1172.01 815.745 1184.76 813.17 1187.77 C 806.646 1196.52 788.748 1215.19 783.853 1222.99 L 775.145 1233.57 C 769.65 1240.21 762.143 1248.41 757.277 1254.94 C 749.909 1263.2 741.639 1273.09 735.412 1282.3 C 712.037 1270 690.139 1264.61 664.017 1272.66 C 643.952 1278.84 627.196 1292.79 617.493 1311.41 C 608.316 1329.43 606.675 1350.36 612.929 1369.6 C 619.427 1389.46 633.632 1406.61 652.447 1415.88 C 671.974 1425.46 694.518 1426.83 715.063 1419.7 C 734.93 1412.77 752.341 1397.74 761.376 1378.64 C 770.168 1359.81 770.958 1338.21 763.564 1318.78 C 762.589 1316.11 761.516 1313.46 760.345 1310.87 C 761.136 1311.17 761.927 1311.48 762.717 1311.78 C 767.969 1311.2 768.884 1320.06 771.465 1319.35 L 771.659 1318.98 C 771.642 1318.01 769.679 1311.76 769.221 1311.59 C 758.5 1307.73 764.252 1311.51 757.319 1299.88 C 757.764 1298.1 761.964 1296.98 762.25 1293.6 C 763.1 1289.56 763.4 1289.49 765.859 1286.35 C 771.771 1278.8 778.364 1271.98 784.09 1264.31 C 785.111 1262.94 788.359 1258.01 789.329 1257.31 C 793.566 1254.24 792.379 1252.42 796.575 1249.49 L 796.752 1249.53 C 797.023 1250.08 797.264 1250.7 797.491 1251.26 C 799.371 1250.18 801.826 1244.27 800.777 1241.01 C 805.592 1234.31 811.772 1227.97 816.871 1221.2 C 818.989 1219.7 829.273 1206.85 830.976 1204.23 C 832.643 1202.99 841.106 1192.57 842.251 1190.71 C 844.078 1188.74 846.911 1185.84 848.184 1183.57 C 850.49 1180.94 852.468 1178.87 854.386 1175.9 C 859.595 1170.07 864.73 1164.17 869.792 1158.21 C 869.044 1167.42 863.037 1170.6 864.518 1176.76 L 865.703 1175.88 C 870.951 1161.49 893.499 1142.61 904.458 1131.24 C 906.039 1129.61 908.487 1129.99 910.621 1130.28 C 913.727 1131.86 914.199 1133.42 915.959 1136.46 L 916.613 1137.62 C 933.924 1140.66 950.412 1138.35 967.915 1138.95 C 967.326 1140.2 955.719 1144.05 953.088 1145.09 L 953.129 1146.63 L 952.983 1145.19 L 954.091 1146.75 C 962.942 1147.23 970.605 1146.41 977.969 1141.09 L 977.513 1140.24 L 973.35 1140.08 L 973.835 1140.18 L 972.473 1137.98 C 982.081 1129.87 994.261 1127.07 1002.52 1118.98 C 1005.57 1112.94 1010.44 1112.52 1015.32 1106.81 C 1020.38 1104.13 1019.8 1100.46 1022.46 1096.96 C 1023.61 1095.45 1026.88 1093.34 1025.83 1090.39 C 1024.29 1089.73 1020.77 1093.48 1019.54 1094.29 C 1015.37 1097.02 1016.95 1105.95 1010.22 1100.75 C 1020.99 1085.98 1024.89 1075.47 1027.2 1057.42 C 1027.67 1056.2 1029.37 1050.54 1029.69 1050.32 C 1035.56 1046.26 1034.9 1041.34 1035.01 1035.14 C 1035.5 1026.12 1035.48 1027.94 1031.3 1022.02 C 1031.51 1022.31 1034.14 1012.04 1031.57 1010.85 C 1030.07 1011.67 1028.97 1015.98 1029.02 1017.51 C 1029.18 1021.65 1028.7 1021.58 1024.98 1022.3 C 1024.21 1022.45 1025.1 1025.11 1024.4 1025.68 L 1024.06 1025.47 L 1024.37 1025.62 C 1021.54 1021.7 1026.2 1021.36 1026.05 1013.54 C 1025.83 1002.06 1020.93 1009 1013.51 1007.65 C 1011.32 1005.23 1010.44 1004.65 1009.8 1001.43 C 1010.7 997.494 1018.77 988.952 1021.83 985.745 C 1070.79 934.377 1113.4 871.107 1161.03 819.624 C 1163.1 819.523 1162.74 819.402 1164.5 818.766 C 1165.47 818.416 1168.21 820.921 1166.4 821.886 C 1164.72 820.812 1164.11 821.738 1163.5 823.556 C 1163.47 824.544 1163.43 825.532 1163.39 826.519 L 1163.88 826.627 C 1167.87 825.158 1170.29 821.546 1172.23 818.209 C 1172.65 817.489 1175.86 814.207 1176.65 813.772 C 1179.03 812.719 1178.92 807.714 1180.68 806.848 C 1185.29 804.582 1187.2 797.363 1192.01 795.9 C 1192.07 795.882 1194.16 792.891 1194.37 792.653 C 1195.6 791.187 1199.99 785.934 1200.57 784.557 C 1204.8 774.435 1210.62 779.147 1213.36 776.186 L 1214.38 775.142 C 1223.8 779.142 1228.59 780.749 1238.17 783.763 C 1237.71 784.273 1237.8 784.074 1237.72 784.385 C 1239.43 786.133 1242.89 785.25 1241.78 790.458 C 1241.22 793.079 1251.92 792.514 1252.31 792.514 C 1258.09 792.52 1263.84 792.484 1269.61 792.559 C 1273.32 792.671 1272.73 790.488 1274.48 788.263 C 1280.28 794.677 1289.65 797.437 1297.13 789.273 C 1298.5 787.781 1305.3 782.543 1305.5 782.036 C 1305.32 781.449 1305.48 781.708 1305.01 781.271 C 1302.11 780.566 1292.93 790.468 1289.69 788.902 C 1289.22 788.014 1289.25 786.773 1289.16 785.84 C 1297.45 777.512 1290.77 780.822 1302.8 776.455 C 1302.89 773.991 1306.23 771.696 1308.18 770.317 C 1310.42 769.919 1312.16 770.058 1313.45 768.004 L 1315.37 764.911 C 1317.86 760.872 1321.65 760.854 1322.7 756.372 C 1323.17 754.397 1323.45 753.426 1325.34 752.386 C 1327.48 751.641 1328.99 749.492 1329.67 747.739 C 1331.03 744.232 1331.34 742.951 1334.57 744.751 C 1336.1 744.758 1335.99 742.155 1334.39 741.808 C 1330.36 740.929 1331.67 736.579 1330.66 734.379 C 1330.38 734.219 1330.54 734.256 1330.19 734.282 C 1329.06 735.649 1328.2 745.995 1324.54 743.191 L 1323.26 742.202 C 1332.49 722.596 1328.19 721.699 1332.31 706.202 C 1334.65 700.966 1332.67 685.538 1329.52 680.477 C 1329.58 679.661 1332.28 678.626 1329.78 675.127 C 1328.21 672.937 1329.72 672.025 1329.46 668.251 C 1327.29 668.821 1325.8 670.231 1324.35 671.772 C 1317.11 656.807 1310.87 650.341 1297.77 639.848 C 1296.61 635.131 1285.1 630.644 1280.39 629.134 C 1228.74 612.564 1180.87 639.198 1170.27 692.83 C 1165.57 687.942 1173.77 675.779 1168.32 669.357 L 1165.92 669.118 L 1164.89 670.434 C 1166.59 678.33 1171.07 695.347 1157.93 696.138 C 1136.26 697.444 1114.54 697.718 1092.83 697.571 C 1058.39 697.381 1024.16 698.093 989.747 696.695 C 976.05 696.139 961.691 698.276 947.806 697.109 C 944.89 693.682 942.309 681.112 940.183 675.576 C 922.881 630.538 867.428 614.413 825.885 635.152 C 824.303 635.942 823.461 636.19 821.739 636.591 C 823.16 629.618 836.734 624.11 843.53 623.309 L 843.952 622.253 C 834.599 614.577 815.241 635.767 809.527 642.238 C 808.759 645.844 808.881 643.976 810.378 648.19 C 806.344 652.277 802.102 656.293 798.803 660.981 z M 1298.91 1000.23 C 1294.53 997.07 1288.5 996.112 1286.34 1002.32 C 1284.72 1006.97 1282.3 1006.19 1280.3 1007.33 C 1280.08 1007.72 1280.13 1007.49 1280.27 1008.03 C 1281.25 1008.75 1285.97 1008.29 1287.57 1008.3 C 1276.3 1012.37 1284.86 1019.42 1276.86 1023.82 C 1274.34 1025.21 1272.81 1026.98 1272.17 1029.98 C 1270.38 1043.08 1270.57 1063.54 1272.46 1076.33 L 1273.62 1077.33 C 1284.89 1084.93 1277.66 1090.6 1283.02 1094.37 C 1293.17 1101.51 1286.68 1098.12 1291.4 1109.69 L 1289.13 1112.26 C 1284.05 1109.55 1276.42 1105.14 1279.73 1117.5 C 1280.07 1118.74 1281.68 1120 1280.37 1120.98 C 1277.29 1121.29 1277.78 1110.63 1267.7 1125.17 C 1265.03 1129.03 1244.45 1147.8 1247.58 1151.36 C 1249.31 1151.84 1258.7 1137.7 1264.48 1136.36 C 1272.3 1134.55 1261.42 1127.05 1272.77 1132.54 C 1265.34 1140.77 1259.18 1148.21 1252.22 1156.81 C 1250.28 1159.18 1248.78 1161.02 1247 1163.53 L 1245.57 1165.15 C 1234.74 1179.54 1221.53 1193.05 1210.42 1207.66 C 1205.59 1214.59 1178.1 1244.58 1176.6 1248.9 C 1166.91 1258.9 1156.79 1272.11 1148.39 1283.19 C 1120.78 1264.89 1085.07 1262.61 1056.52 1280.28 C 1039.21 1291.06 1026.9 1308.28 1022.32 1328.15 C 1017.89 1348.01 1021.44 1368.82 1032.21 1386.09 C 1055.8 1423.59 1107.83 1434.71 1144.85 1410.36 C 1162.15 1399.01 1174.15 1381.17 1178.16 1360.87 C 1182.71 1337.42 1177.58 1318.56 1164.61 1299.18 C 1171.62 1292.19 1182.82 1278.52 1189.37 1270.61 C 1200.53 1257.12 1214.33 1241.48 1224.66 1227.51 C 1227.43 1225.41 1237.61 1212.71 1239.76 1209.58 C 1241.82 1207.97 1242.23 1207.21 1243.82 1205.19 C 1246.92 1202.28 1251.29 1196.57 1254.05 1193.12 L 1254.74 1191.93 C 1256.56 1189.98 1258.3 1188.03 1260.15 1186.09 C 1260.99 1186.37 1263.55 1186.72 1263.69 1186.84 C 1263.29 1188.51 1258.42 1191.54 1258.24 1194.07 C 1258.23 1194.32 1258.35 1194.56 1258.56 1194.7 C 1259.87 1195.52 1264.09 1189.36 1264.59 1188.63 C 1268.95 1182.27 1274.12 1176.78 1278.82 1170.81 C 1281.49 1167.08 1284.66 1163.75 1287.81 1160.32 C 1289.09 1158.93 1300.52 1146.59 1301.62 1146.29 C 1309.52 1144.14 1312.27 1129.94 1320.38 1130.29 C 1321.83 1130.35 1326.73 1129.22 1327.14 1128.42 C 1326.74 1127.43 1324.77 1126.42 1323.63 1126.28 L 1323.6 1126.35 C 1323.46 1126.32 1323.31 1126.29 1323.17 1126.25 C 1322.94 1125.73 1323.03 1125.43 1323.25 1124.87 L 1323.9 1123.29 L 1326.71 1124.88 C 1328.48 1126.23 1334.54 1130.06 1334.73 1132.7 C 1333.16 1133.44 1331.19 1133.25 1330.28 1135.48 C 1330.13 1135.85 1330.13 1136.26 1330.29 1136.63 C 1330.94 1138.12 1334.4 1138.24 1335.87 1138.61 C 1339.55 1139.51 1346.69 1138.83 1348.43 1139.85 L 1348.4 1139.93 L 1348.62 1140.19 L 1348.66 1140.4 C 1348.9 1140.16 1340.31 1142.72 1340.19 1142.76 L 1338.45 1143.33 C 1336.87 1143.06 1335.97 1142.78 1334.5 1143.5 C 1333.92 1144.47 1334.98 1145.59 1335.63 1145.68 C 1349.01 1147.51 1364.75 1146.33 1378.4 1146.09 C 1380.58 1146.05 1392.23 1145.3 1391.09 1141.11 C 1388.48 1139.55 1387.09 1139.18 1391.09 1136.38 C 1391.54 1134.32 1389.74 1132.73 1392.37 1131.92 C 1395.63 1130.92 1398.06 1129.99 1401.48 1129.84 C 1403.41 1129.75 1404.49 1126.9 1405.19 1125.64 C 1406.21 1123.82 1407.98 1122.54 1410.04 1122.16 C 1412.31 1121.71 1412.95 1121.88 1414.94 1120.62 C 1419.24 1111.57 1421.18 1116.02 1425.53 1109.04 C 1426.78 1107.05 1428.28 1103.4 1429.36 1101.34 C 1433.06 1101.79 1431.18 1103.03 1434.23 1097.63 C 1435.17 1095.96 1436.75 1092.06 1436.09 1090 C 1434.47 1082.96 1433.14 1089.91 1432.44 1092.34 C 1431.58 1095.29 1421.77 1109.02 1419.92 1109.56 C 1419.19 1109.32 1418.8 1108.88 1418.3 1108.26 L 1417.11 1106.78 C 1438.34 1082.3 1443.01 1057.71 1434.3 1026.64 C 1434.41 1024.9 1434.4 1023.26 1434.28 1021.51 C 1434.76 1020.8 1438.68 1019.59 1436.97 1018.24 C 1436.9 1018.24 1429.34 1019.91 1431.96 1014.57 C 1432.64 1013.17 1435.85 1010.17 1434.74 1008.05 C 1433.36 1005.38 1429.67 1007.74 1427.75 1006.77 C 1427.09 1006.44 1427.86 1005.28 1426.51 1004.77 C 1425.95 1004.86 1425.56 1005.11 1425.11 1005.44 L 1424.08 1006.16 C 1422.83 1005.3 1418.81 1000.17 1417.29 998.665 C 1388.97 970.679 1353.42 969.996 1319.31 984.37 C 1314.56 981.124 1315.2 984.022 1312.24 982.709 C 1311.65 981.902 1312.6 981.089 1311.99 980.285 C 1309.53 979.35 1304.06 983.322 1303.21 985.67 C 1302.97 986.315 1304.3 988.922 1304.5 989.685 L 1304.42 989.655 C 1304.77 991.666 1304.83 991.734 1305.75 993.729 L 1298.91 1000.23 z M 1164.48 728.965 C 1165.56 733.292 1167.46 741.343 1168.99 745.319 C 1171.22 748.673 1174.21 753.875 1177.09 756.276 L 1177.63 754.291 C 1176.51 752.566 1174.67 749.582 1173.34 748.215 C 1169.64 744.425 1169.29 729.402 1166.37 727.348 C 1139.37 725.567 1100.95 727.368 1073.06 727.002 C 1059.14 726.819 1018.14 726.169 1005.93 727.426 C 1006.69 728.256 1007.45 729.085 1008.21 729.915 C 1014.79 730.857 1025.61 731.365 1032.02 731.603 C 1043.13 732.015 1054.02 732.6 1064.84 732.376 C 1061.85 731.583 1057.57 731.766 1054.34 731.745 L 1054.66 730.485 C 1060.63 728.209 1066.5 732.507 1073.87 732.319 C 1094.88 731.783 1115.31 730.461 1136.25 728.683 C 1145.17 727.926 1154.61 729.629 1164.48 728.965 z M 1051.77 734.129 C 1050.09 734.443 1048.75 734.329 1047.86 735.808 C 1048.76 737.192 1070.32 735.999 1072.25 736 C 1072.88 736.003 1076.08 736.206 1076.69 735.667 C 1076.18 733.683 1054.52 734.122 1051.77 734.129 z" fill="url(#Gradient5)" transform="translate(0,0)"></path>
<path d="M 757.277 1254.94 C 764.402 1254.83 778.272 1231.52 779.363 1231.28 C 784.031 1241.97 787.394 1237.81 789.812 1240.58 C 789.539 1241.99 786.16 1243.09 785.295 1244.26 C 784.41 1245.45 783.641 1248.53 782.848 1249.4 C 776.743 1256.11 771.331 1263.47 764.762 1269.76 C 764.318 1270.19 763.051 1271.05 763.246 1271.76 L 763.551 1271.87 C 764.725 1271.63 783.896 1256.59 786.289 1253.56 C 788.032 1251.35 788.872 1248.51 792.582 1250.29 C 780.229 1266.59 763.746 1282.72 752.081 1297.75 C 755.34 1302.13 758.076 1305.82 760.345 1310.87 C 761.516 1313.46 762.589 1316.11 763.564 1318.78 C 770.958 1338.21 770.168 1359.81 761.376 1378.64 C 752.341 1397.74 734.93 1412.77 715.063 1419.7 C 694.518 1426.83 671.974 1425.46 652.447 1415.88 C 633.632 1406.61 619.427 1389.46 612.929 1369.6 C 606.675 1350.36 608.316 1329.43 617.493 1311.41 C 627.196 1292.79 643.952 1278.84 664.017 1272.66 C 690.139 1264.61 712.037 1270 735.412 1282.3 C 741.639 1273.09 749.909 1263.2 757.277 1254.94 z" fill="rgb(221,220,219)" fill-opacity="0.952941" transform="translate(0,0)"></path>
<path d="M 1176.6 1248.9 L 1176.21 1250.01 C 1174.56 1254.85 1168.36 1262.2 1164.98 1266.25 C 1163.24 1268.32 1156.85 1274.31 1157.89 1277.36 C 1159.83 1282.37 1155.87 1286.75 1164.39 1285.48 C 1166.25 1280.45 1178.6 1270.3 1181.24 1267.58 C 1192.2 1256.23 1198.28 1244.15 1211.69 1235.63 C 1216 1232.89 1219.56 1227.61 1224.66 1227.51 C 1214.33 1241.48 1200.53 1257.12 1189.37 1270.61 C 1182.82 1278.52 1171.62 1292.19 1164.61 1299.18 C 1177.58 1318.56 1182.71 1337.42 1178.16 1360.87 C 1174.15 1381.17 1162.15 1399.01 1144.85 1410.36 C 1107.83 1434.71 1055.8 1423.59 1032.21 1386.09 C 1021.44 1368.82 1017.89 1348.01 1022.32 1328.15 C 1026.9 1308.28 1039.21 1291.06 1056.52 1280.28 C 1085.07 1262.61 1120.78 1264.89 1148.39 1283.19 C 1156.79 1272.11 1166.91 1258.9 1176.6 1248.9 z" fill="url(#Gradient4)" transform="translate(0,0)"></path>
<path d="M 1210.42 1207.66 C 1221.89 1206.13 1213.03 1206.11 1221.24 1198.53 C 1221.61 1198.19 1222.46 1200.48 1223.15 1200.62 C 1224.24 1199.86 1224.65 1191.68 1228.37 1192.11 C 1229.34 1195.59 1223.86 1194.54 1225.08 1200.42 C 1226.26 1203.28 1227.27 1201.41 1230.26 1201.42 L 1230.47 1201.62 C 1230.4 1201.94 1227.56 1205.7 1227.05 1206.47 C 1226.59 1207.61 1226.08 1209.74 1225.24 1210.54 L 1225.26 1210.4 C 1223.84 1210.78 1221.02 1212.19 1221.49 1214.09 C 1222.75 1214.61 1224.48 1212.89 1224.93 1214.02 C 1225.15 1214.57 1224.7 1215.36 1225.3 1216.19 C 1226.25 1216.58 1235 1209.95 1239.76 1209.58 C 1237.61 1212.71 1227.43 1225.41 1224.66 1227.51 C 1219.56 1227.61 1216 1232.89 1211.69 1235.63 C 1198.28 1244.15 1192.2 1256.23 1181.24 1267.58 C 1178.6 1270.3 1166.25 1280.45 1164.39 1285.48 C 1155.87 1286.75 1159.83 1282.37 1157.89 1277.36 C 1156.85 1274.31 1163.24 1268.32 1164.98 1266.25 C 1168.36 1262.2 1174.56 1254.85 1176.21 1250.01 L 1176.6 1248.9 C 1178.1 1244.58 1205.59 1214.59 1210.42 1207.66 z" fill="rgb(221,220,219)" fill-opacity="0.784314" transform="translate(0,0)"></path>
<path d="M 810.378 648.19 C 808.881 643.976 808.759 645.844 809.527 642.238 C 815.241 635.767 834.599 614.577 843.952 622.253 L 843.53 623.309 C 836.734 624.11 823.16 629.618 821.739 636.591 C 823.461 636.19 824.303 635.942 825.885 635.152 C 867.428 614.413 922.881 630.538 940.183 675.576 C 942.309 681.112 944.89 693.682 947.806 697.109 C 961.691 698.276 976.05 696.139 989.747 696.695 C 1024.16 698.093 1058.39 697.381 1092.83 697.571 C 1114.54 697.718 1136.26 697.444 1157.93 696.138 C 1171.07 695.347 1166.59 678.33 1164.89 670.434 L 1165.92 669.118 L 1168.32 669.357 C 1173.77 675.779 1165.57 687.942 1170.27 692.83 C 1180.87 639.198 1228.74 612.564 1280.39 629.134 C 1285.1 630.644 1296.61 635.131 1297.77 639.848 C 1288.74 635.097 1282.46 631.959 1272.85 629.169 C 1231.17 617.073 1185.8 641.4 1174.78 683.824 C 1173.45 688.909 1172.33 693.948 1171.24 699.094 C 1095.48 699.611 1019.71 699.614 943.95 699.1 C 936.418 632.434 860.828 607.052 810.378 648.19 z" fill="rgb(28,26,26)" fill-opacity="0.913725" transform="translate(0,0)"></path>
<path d="M 994.905 1115.2 C 997.717 1117.16 999.32 1117.95 1002.52 1118.98 C 994.261 1127.07 982.081 1129.87 972.473 1137.98 L 973.835 1140.18 L 973.35 1140.08 L 977.513 1140.24 L 977.969 1141.09 C 970.605 1146.41 962.942 1147.23 954.091 1146.75 L 952.983 1145.19 L 953.129 1146.63 L 953.088 1145.09 C 955.719 1144.05 967.326 1140.2 967.915 1138.95 C 950.412 1138.35 933.924 1140.66 916.613 1137.62 L 915.959 1136.46 C 914.199 1133.42 913.727 1131.86 910.621 1130.28 C 908.487 1129.99 906.039 1129.61 904.458 1131.24 C 893.499 1142.61 870.951 1161.49 865.703 1175.88 L 864.518 1176.76 C 863.037 1170.6 869.044 1167.42 869.792 1158.21 C 874.526 1150.71 897.189 1124.62 903.956 1118.4 C 909.088 1121.27 914.974 1124.06 920.288 1126.71 C 918.919 1129.54 924.177 1127.51 923.469 1130.56 C 923.077 1132.24 921.793 1133.38 921.27 1134.77 C 923.81 1137.72 938.92 1137.58 939.299 1133.53 C 938.963 1133 939.173 1133.29 938.641 1132.66 C 938.669 1132.07 938.697 1131.47 938.725 1130.88 C 961.916 1132.21 975.347 1127.44 994.905 1115.2 z" fill="rgb(28,26,26)" fill-opacity="0.909804" transform="translate(0,0)"></path>
<path d="M 813.17 1187.77 C 813.999 1194.62 815.579 1193.35 811.387 1200.2 C 808.644 1204.69 805.366 1207.9 802.545 1212.4 C 807.534 1214.6 814.153 1203.68 815.537 1204.29 C 820.244 1206.39 817.082 1205.07 821.184 1205.01 C 822.252 1206.17 819.858 1210.16 822.42 1210.26 C 825.299 1208.57 821.494 1204.83 830.976 1204.23 C 829.273 1206.85 818.989 1219.7 816.871 1221.2 C 810.066 1223.58 810.979 1219.53 805.042 1223.57 C 798.198 1228.23 781.523 1243.8 783.751 1223.99 L 783.853 1222.99 C 788.748 1215.19 806.646 1196.52 813.17 1187.77 z" fill="rgb(221,220,219)" fill-opacity="0.435294" transform="translate(0,0)"></path>
<path d="M 813.17 1187.77 C 815.745 1184.76 825.987 1172.01 828.154 1170.9 C 829.178 1172.08 828.983 1171.55 828.86 1172.37 C 828.778 1172.34 828.695 1172.31 828.613 1172.28 C 828.716 1172.69 828.819 1173.09 828.922 1173.5 L 828.56 1173.2 C 830.345 1174.82 830.873 1171.64 831.397 1171.45 C 832.992 1171.82 834.469 1175.59 835.089 1176.94 C 835.768 1178.67 828.93 1184.88 827.465 1186.56 C 831.05 1184.35 834.789 1182.44 838.416 1180.3 C 839.836 1179.45 841.508 1179.12 843.146 1179.36 C 845.287 1181.34 837.54 1187.55 842.251 1190.71 C 841.106 1192.57 832.643 1202.99 830.976 1204.23 C 821.494 1204.83 825.299 1208.57 822.42 1210.26 C 819.858 1210.16 822.252 1206.17 821.184 1205.01 C 817.082 1205.07 820.244 1206.39 815.537 1204.29 C 814.153 1203.68 807.534 1214.6 802.545 1212.4 C 805.366 1207.9 808.644 1204.69 811.387 1200.2 C 815.579 1193.35 813.999 1194.62 813.17 1187.77 z" fill="rgb(221,220,219)" fill-opacity="0.321569" transform="translate(0,0)"></path>
<path d="M 1287.57 1008.3 L 1292.96 1007.72 C 1274.21 1035.18 1273.31 1073.15 1294.01 1100.54 C 1297.59 1105.28 1295.34 1105.31 1291.4 1109.69 C 1286.68 1098.12 1293.17 1101.51 1283.02 1094.37 C 1277.66 1090.6 1284.89 1084.93 1273.62 1077.33 L 1272.46 1076.33 C 1270.57 1063.54 1270.38 1043.08 1272.17 1029.98 C 1272.81 1026.98 1274.34 1025.21 1276.86 1023.82 C 1284.86 1019.42 1276.3 1012.37 1287.57 1008.3 z" fill="url(#Gradient3)" transform="translate(0,0)"></path>
<path d="M 1007.56 962.119 C 1006.55 959.54 1006.47 952.748 1007.52 950.132 C 1010.06 950.078 1012.6 949.957 1015.13 949.77 C 1018.84 944.289 1023.65 936.705 1028.09 931.865 C 1037.7 921.399 1046.26 916.941 1053.5 904.062 C 1058.79 894.634 1072.82 877.204 1082.52 872.287 C 1085.57 870.738 1086.34 858.458 1090.26 854.576 C 1092.72 855.24 1091.82 855.109 1094.39 854.919 C 1096.37 852.611 1096.5 852.339 1098.92 850.569 L 1102.27 851.713 C 1079.48 879.634 1056.42 907.335 1033.1 934.813 C 1025.06 944.281 1016.65 955.246 1008.5 964.268 L 1007.56 962.119 z" fill="rgb(28,26,26)" fill-opacity="0.819608" transform="translate(0,0)"></path>
<path d="M 1005.93 727.426 C 1018.14 726.169 1059.14 726.819 1073.06 727.002 C 1100.95 727.368 1139.37 725.567 1166.37 727.348 C 1169.29 729.402 1169.64 744.425 1173.34 748.215 C 1174.67 749.582 1176.51 752.566 1177.63 754.291 L 1177.09 756.276 C 1174.21 753.875 1171.22 748.673 1168.99 745.319 C 1167.46 741.343 1165.56 733.292 1164.48 728.965 C 1154.61 729.629 1145.17 727.926 1136.25 728.683 C 1115.31 730.461 1094.88 731.783 1073.87 732.319 C 1066.5 732.507 1060.63 728.209 1054.66 730.485 L 1054.34 731.745 C 1057.57 731.766 1061.85 731.583 1064.84 732.376 C 1054.02 732.6 1043.13 732.015 1032.02 731.603 C 1025.61 731.365 1014.79 730.857 1008.21 729.915 C 1007.45 729.085 1006.69 728.256 1005.93 727.426 z" fill="rgb(28,26,26)" fill-opacity="0.929412" transform="translate(0,0)"></path>
<path d="M 783.853 1222.99 L 783.751 1223.99 C 781.523 1243.8 798.198 1228.23 805.042 1223.57 C 810.979 1219.53 810.066 1223.58 816.871 1221.2 C 811.772 1227.97 805.592 1234.31 800.777 1241.01 C 799.181 1242.86 794.004 1249.23 792.582 1250.29 C 788.872 1248.51 788.032 1251.35 786.289 1253.56 C 783.896 1256.59 764.725 1271.63 763.551 1271.87 L 763.246 1271.76 C 763.051 1271.05 764.318 1270.19 764.762 1269.76 C 771.331 1263.47 776.743 1256.11 782.848 1249.4 C 783.641 1248.53 784.41 1245.45 785.295 1244.26 C 786.16 1243.09 789.539 1241.99 789.812 1240.58 C 787.394 1237.81 784.031 1241.97 779.363 1231.28 C 778.272 1231.52 764.402 1254.83 757.277 1254.94 C 762.143 1248.41 769.65 1240.21 775.145 1233.57 L 783.853 1222.99 z" fill="rgb(221,220,219)" fill-opacity="0.737255" transform="translate(0,0)"></path>
<path d="M 1315.62 1119.2 C 1318.37 1120.6 1321.15 1121.89 1323.9 1123.29 L 1323.25 1124.87 C 1323.03 1125.43 1322.94 1125.73 1323.17 1126.25 C 1323.31 1126.29 1323.46 1126.32 1323.6 1126.35 L 1323.63 1126.28 C 1324.77 1126.42 1326.74 1127.43 1327.14 1128.42 C 1326.73 1129.22 1321.83 1130.35 1320.38 1130.29 C 1312.27 1129.94 1309.52 1144.14 1301.62 1146.29 C 1300.52 1146.59 1289.09 1158.93 1287.81 1160.32 C 1284.66 1163.75 1281.49 1167.08 1278.82 1170.81 C 1274.12 1176.78 1268.95 1182.27 1264.59 1188.63 C 1264.09 1189.36 1259.87 1195.52 1258.56 1194.7 C 1258.35 1194.56 1258.23 1194.32 1258.24 1194.07 C 1258.42 1191.54 1263.29 1188.51 1263.69 1186.84 C 1263.55 1186.72 1260.99 1186.37 1260.15 1186.09 L 1260.18 1185.31 C 1261.28 1184.09 1261.46 1184 1262.27 1182.73 C 1263.96 1180.86 1266.19 1178.44 1267.54 1176.34 C 1268.11 1175.66 1268.68 1174.99 1269.26 1174.32 C 1270.64 1172.74 1271.06 1172.45 1272 1170.7 C 1286.58 1153.56 1301.19 1136.46 1315.62 1119.2 z" fill="rgb(28,26,26)" fill-opacity="0.831373" transform="translate(0,0)"></path>
<path d="M 1417.11 1106.78 L 1418.3 1108.26 C 1418.8 1108.88 1419.19 1109.32 1419.92 1109.56 C 1421.77 1109.02 1431.58 1095.29 1432.44 1092.34 C 1433.14 1089.91 1434.47 1082.96 1436.09 1090 C 1436.75 1092.06 1435.17 1095.96 1434.23 1097.63 C 1431.18 1103.03 1433.06 1101.79 1429.36 1101.34 C 1428.28 1103.4 1426.78 1107.05 1425.53 1109.04 C 1421.18 1116.02 1419.24 1111.57 1414.94 1120.62 C 1412.95 1121.88 1412.31 1121.71 1410.04 1122.16 C 1407.98 1122.54 1406.21 1123.82 1405.19 1125.64 C 1404.49 1126.9 1403.41 1129.75 1401.48 1129.84 C 1398.06 1129.99 1395.63 1130.92 1392.37 1131.92 C 1389.74 1132.73 1391.54 1134.32 1391.09 1136.38 C 1387.09 1139.18 1388.48 1139.55 1391.09 1141.11 C 1392.23 1145.3 1380.58 1146.05 1378.4 1146.09 C 1364.75 1146.33 1349.01 1147.51 1335.63 1145.68 C 1334.98 1145.59 1333.92 1144.47 1334.5 1143.5 C 1335.97 1142.78 1336.87 1143.06 1338.45 1143.33 C 1344.32 1144.3 1352.01 1144.32 1358 1143.93 C 1361.57 1143.7 1391.13 1146.61 1387.33 1137.65 C 1386.4 1136.99 1383.23 1137.1 1382.02 1137.01 C 1382.35 1136.18 1384.69 1128.16 1384.78 1127.46 C 1402.35 1120.9 1403.7 1117.86 1417.11 1106.78 z" fill="rgb(28,26,26)" fill-opacity="0.803922" transform="translate(0,0)"></path>
<path d="M 1202.81 768.409 C 1206.72 770.679 1210.5 772.738 1214.38 775.142 L 1213.36 776.186 C 1210.62 779.147 1204.8 774.435 1200.57 784.557 C 1199.99 785.934 1195.6 791.187 1194.37 792.653 C 1194.16 792.891 1192.07 795.882 1192.01 795.9 C 1187.2 797.363 1185.29 804.582 1180.68 806.848 C 1178.92 807.714 1179.03 812.719 1176.65 813.772 C 1175.86 814.207 1172.65 817.489 1172.23 818.209 C 1170.29 821.546 1167.87 825.158 1163.88 826.627 L 1163.39 826.519 C 1163.43 825.532 1163.47 824.544 1163.5 823.556 C 1164.11 821.738 1164.72 820.812 1166.4 821.886 C 1168.21 820.921 1165.47 818.416 1164.5 818.766 C 1162.74 819.402 1163.1 819.523 1161.03 819.624 C 1173.95 802.263 1190.16 786.092 1202.81 768.409 z" fill="rgb(28,26,26)" fill-opacity="0.941176" transform="translate(0,0)"></path>
<path d="M 904.224 778.488 C 913.904 772.553 925.148 767.895 930.504 757.488 C 930.025 758.42 937.871 746.496 937.023 747.217 C 941.732 746.247 938.887 751.224 938.301 752.668 C 936.316 757.564 936.395 756.385 932.814 760.274 C 922.78 771.17 927.977 768.588 929.411 773.04 C 929.098 774.433 917.197 785.942 914.678 786.564 C 913.925 786.94 913.171 787.315 912.417 787.691 C 907.937 789.489 907.087 791.825 902.648 793.687 C 895.137 796.838 897.059 789.506 890.003 791 C 890.872 784.451 892.999 785.253 899.062 783.922 C 903.879 782.865 901.363 782.585 904.224 778.488 z" fill="rgb(28,26,26)" fill-opacity="0.678431" transform="translate(0,0)"></path>
<path d="M 965.08 722.896 C 967.258 722.5 969.396 722.214 971.482 721.508 C 971.557 721.122 968.332 716.042 972.435 711.343 C 973.75 709.838 977.8 704.152 979.319 702.437 C 980.048 701.614 990.086 701.505 985.131 705.469 C 988.262 705.87 989.621 703.711 992.671 706.827 C 993.713 707.89 995.013 706.012 997.616 705.388 C 996.941 704.206 994.938 704.3 994.252 703.029 C 996.671 700.274 1006.65 703.005 1006.59 708.36 C 1006.57 709.813 1008.86 715.782 1006.91 717.817 C 1003.44 721.608 1000.87 720.56 1006.63 722.916 C 1002.5 722.96 998.364 722.932 994.23 722.831 C 995.296 715.805 996.221 715.619 986.542 714.536 C 976.486 713.412 979.042 720.678 977.28 722.946 C 973.213 722.992 969.146 722.975 965.08 722.896 z" fill="rgb(221,220,219)" fill-opacity="0.313725" transform="translate(0,0)"></path>
<path d="M 791.939 739.168 C 782.828 742.797 787.649 731.55 783.519 725.656 C 782.165 722.653 778.542 715.299 778.011 712.516 C 776.552 704.872 776.232 697.065 780.233 690.346 C 783.409 685.011 784.545 682.286 785.082 675.989 C 785.446 671.71 788.086 666.689 789.585 662.541 L 789.654 662.533 C 789.826 662.783 789.852 663.189 789.887 663.476 C 789.962 664.074 789.944 665.62 790.507 666.16 C 792.888 664.86 791.631 655.078 795.905 655.863 C 797.011 656.067 798.181 659.789 798.803 660.981 C 783.904 686.946 780.527 710.681 791.939 739.168 z" fill="url(#Gradient2)" transform="translate(0,0)"></path>
<path d="M 1245.57 1165.15 C 1245.56 1166.15 1245.13 1170.39 1245.43 1170.89 C 1245.82 1171.06 1246.16 1171.22 1246.46 1171.57 L 1245.97 1172.07 C 1246.08 1171.96 1236.46 1187.68 1236.52 1187.47 C 1237.77 1187.79 1240.62 1187.28 1242 1187.08 C 1250.61 1185.71 1251.21 1181.82 1254.74 1191.93 L 1254.05 1193.12 L 1252.02 1193.33 C 1240.75 1194.01 1235.53 1197.6 1225.08 1200.42 C 1223.86 1194.54 1229.34 1195.59 1228.37 1192.11 C 1224.65 1191.68 1224.24 1199.86 1223.15 1200.62 C 1222.46 1200.48 1221.61 1198.19 1221.24 1198.53 C 1213.03 1206.11 1221.89 1206.13 1210.42 1207.66 C 1221.53 1193.05 1234.74 1179.54 1245.57 1165.15 z" fill="rgb(221,220,219)" fill-opacity="0.513725" transform="translate(0,0)"></path>
<path d="M 1013.51 1007.65 C 1020.93 1009 1025.83 1002.06 1026.05 1013.54 C 1026.2 1021.36 1021.54 1021.7 1024.37 1025.62 L 1024.06 1025.47 L 1024.4 1025.68 C 1025.1 1025.11 1024.21 1022.45 1024.98 1022.3 C 1028.7 1021.58 1029.18 1021.65 1029.02 1017.51 C 1028.97 1015.98 1030.07 1011.67 1031.57 1010.85 C 1034.14 1012.04 1031.51 1022.31 1031.3 1022.02 C 1035.48 1027.94 1035.5 1026.12 1035.01 1035.14 C 1034.9 1041.34 1035.56 1046.26 1029.69 1050.32 C 1029.37 1050.54 1027.67 1056.2 1027.2 1057.42 C 1026.61 1038.66 1023.6 1023.83 1013.51 1007.65 z" fill="rgb(28,26,26)" fill-opacity="0.905882" transform="translate(0,0)"></path>
<path d="M 1289.66 775.467 C 1288.96 777.279 1284.65 781.422 1287.43 781.827 C 1289.24 781.114 1294 774.928 1298.05 775.184 C 1303.05 775.499 1304.14 771.172 1306.99 769.633 C 1307.38 769.666 1307.48 769.834 1308.18 770.317 C 1306.23 771.696 1302.89 773.991 1302.8 776.455 C 1290.77 780.822 1297.45 777.512 1289.16 785.84 C 1283.54 782.983 1278.83 784.243 1274.48 788.263 C 1272.73 790.488 1273.32 792.671 1269.61 792.559 C 1263.84 792.484 1258.09 792.52 1252.31 792.514 C 1251.92 792.514 1241.22 793.079 1241.78 790.458 C 1242.89 785.25 1239.43 786.133 1237.72 784.385 C 1237.8 784.074 1237.71 784.273 1238.17 783.763 C 1261.77 785.032 1267.7 785.205 1289.66 775.467 z" fill="rgb(28,26,26)" fill-opacity="0.937255" transform="translate(0,0)"></path>
<path d="M 906.289 773.869 C 905.543 775.421 904.906 776.912 904.224 778.488 C 901.363 782.585 903.879 782.865 899.062 783.922 C 892.999 785.253 890.872 784.451 890.003 791 C 887.115 794.905 875.963 795.647 871.497 795.386 C 869.154 795.249 863.549 795.536 861.997 795.334 C 861.072 795.214 841.019 794.863 845.983 790.996 C 847.953 789.291 842.117 791.142 846.159 784.889 L 847.064 783.419 C 849.544 783.925 851.776 783.784 854.131 784.786 C 853.837 785.122 853.702 785.172 853.674 785.521 C 854.908 786.7 856.67 785.301 856.616 788.302 C 863.94 791.036 871.584 793.839 879.602 790.723 C 878.426 791.18 879.843 785.499 879.893 786.198 L 879.854 786.159 C 880.844 783.765 881.318 786.366 880.791 783.602 C 890.406 780.004 896.562 778.212 906.289 773.869 z" fill="rgb(28,26,26)" fill-opacity="0.894118" transform="translate(0,0)"></path>
<path d="M 961.282 975.34 C 964.346 973.289 958.451 970.51 969.004 970.536 C 973.934 970.549 975.231 967.113 984.022 966.299 C 992.972 965.47 986.179 966.16 992.653 967.796 C 993.775 969.651 993.588 969.866 993.463 972.113 C 992.752 973.266 992.79 974.729 993.559 975.843 C 994.329 976.957 995.684 977.511 997.013 977.255 L 995.934 978.737 C 994.097 981.28 991.85 983.41 989.709 985.751 C 981.916 982.171 973.374 977.857 964.974 976.286 C 962.799 975.879 963.16 976.237 961.282 975.34 z M 989.624 975.092 C 993.475 968.504 986.969 968.8 981.913 968.619 L 981.375 969.985 C 979.029 975.605 985.385 974.992 989.624 975.092 z" fill="rgb(28,26,26)" fill-opacity="0.792157" transform="translate(0,0)"></path>
<path d="M 981.913 968.619 C 986.969 968.8 993.475 968.504 989.624 975.092 C 985.385 974.992 979.029 975.605 981.375 969.985 L 981.913 968.619 z" fill="rgb(28,26,26)" fill-opacity="0.509804" transform="translate(0,0)"></path>
<path d="M 1323.26 742.202 L 1324.54 743.191 C 1328.2 745.995 1329.06 735.649 1330.19 734.282 C 1330.54 734.256 1330.38 734.219 1330.66 734.379 C 1331.67 736.579 1330.36 740.929 1334.39 741.808 C 1335.99 742.155 1336.1 744.758 1334.57 744.751 C 1331.34 742.951 1331.03 744.232 1329.67 747.739 C 1328.99 749.492 1327.48 751.641 1325.34 752.386 C 1323.45 753.426 1323.17 754.397 1322.7 756.372 C 1321.65 760.854 1317.86 760.872 1315.37 764.911 L 1313.45 768.004 C 1312.16 770.058 1310.42 769.919 1308.18 770.317 C 1307.48 769.834 1307.38 769.666 1306.99 769.633 C 1304.14 771.172 1303.05 775.499 1298.05 775.184 C 1294 774.928 1289.24 781.114 1287.43 781.827 C 1284.65 781.422 1288.96 777.279 1289.66 775.467 C 1291.93 773.531 1296.36 770.949 1299.07 769.175 C 1310.61 761.625 1315.56 752.734 1323.26 742.202 z" fill="rgb(28,26,26)" fill-opacity="0.831373" transform="translate(0,0)"></path>
<path d="M 1326.71 1124.88 C 1351.16 1132.87 1360.07 1132.95 1384.78 1127.46 C 1384.69 1128.16 1382.35 1136.18 1382.02 1137.01 C 1368.17 1137.61 1347.29 1135.12 1335.87 1138.61 C 1334.4 1138.24 1330.94 1138.12 1330.29 1136.63 C 1330.13 1136.26 1330.13 1135.85 1330.28 1135.48 C 1331.19 1133.25 1333.16 1133.44 1334.73 1132.7 C 1334.54 1130.06 1328.48 1126.23 1326.71 1124.88 z" fill="rgb(28,26,26)" fill-opacity="0.905882" transform="translate(0,0)"></path>
<path d="M 828.154 1170.9 C 830.15 1168.16 835.466 1160.83 837.903 1158.72 C 840.889 1162.03 842.2 1160.43 840.728 1163.56 C 842.546 1167.26 845.198 1158.38 847.666 1162.56 C 847.939 1163.02 853.715 1164.63 854.198 1166.94 C 855.274 1169.31 854.493 1173.15 854.386 1175.9 C 852.468 1178.87 850.49 1180.94 848.184 1183.57 C 847.174 1180.56 848.572 1176 844.504 1175.48 C 837.992 1174.66 840.931 1173.45 835.089 1176.94 C 834.469 1175.59 832.992 1171.82 831.397 1171.45 C 830.873 1171.64 830.345 1174.82 828.56 1173.2 L 828.922 1173.5 C 828.819 1173.09 828.716 1172.69 828.613 1172.28 C 828.695 1172.31 828.778 1172.34 828.86 1172.37 C 828.983 1171.55 829.178 1172.08 828.154 1170.9 z" fill="rgb(221,220,219)" fill-opacity="0.133333" transform="translate(0,0)"></path>
<path d="M 1335.87 1138.61 C 1347.29 1135.12 1368.17 1137.61 1382.02 1137.01 C 1383.23 1137.1 1386.4 1136.99 1387.33 1137.65 C 1391.13 1146.61 1361.57 1143.7 1358 1143.93 C 1352.01 1144.32 1344.32 1144.3 1338.45 1143.33 L 1340.19 1142.76 C 1340.31 1142.72 1348.9 1140.16 1348.66 1140.4 L 1348.62 1140.19 L 1348.4 1139.93 L 1348.43 1139.85 C 1346.69 1138.83 1339.55 1139.51 1335.87 1138.61 z" fill="rgb(28,26,26)" fill-opacity="0.494118" transform="translate(0,0)"></path>
<path d="M 874.979 1093.15 C 876.613 1093.67 876.924 1093.59 878.744 1093.69 C 880.514 1095.23 883.432 1099.9 885.091 1102.1 C 880.669 1106.62 877.917 1110.09 873.827 1114.74 C 869.25 1116.28 870.752 1112.81 867.37 1112.64 C 864.87 1113.97 863.803 1120.53 861.959 1120.49 C 858.49 1120.01 857.083 1126.27 854.328 1127.23 C 850.061 1128.7 848.907 1134.86 846.412 1136.29 L 846.068 1136.03 C 846.271 1128.79 859.621 1119.09 863.242 1112.64 C 867.082 1105.81 867.541 1111.86 872.516 1103.04 C 873.671 1102.54 876.927 1101.07 875.78 1099.34 C 875.059 1098.98 868.482 1098.35 870.02 1094.35 C 871.95 1092.85 872.243 1095.65 874.979 1093.15 z" fill="rgb(28,26,26)" fill-opacity="0.905882" transform="translate(0,0)"></path>
<path d="M 800.777 1241.01 C 801.826 1244.27 799.371 1250.18 797.491 1251.26 C 797.264 1250.7 797.023 1250.08 796.752 1249.53 L 796.575 1249.49 C 792.379 1252.42 793.566 1254.24 789.329 1257.31 C 788.359 1258.01 785.111 1262.94 784.09 1264.31 C 778.364 1271.98 771.771 1278.8 765.859 1286.35 C 763.4 1289.49 763.1 1289.56 762.25 1293.6 C 761.964 1296.98 757.764 1298.1 757.319 1299.88 C 764.252 1311.51 758.5 1307.73 769.221 1311.59 C 769.679 1311.76 771.642 1318.01 771.659 1318.98 L 771.465 1319.35 C 768.884 1320.06 767.969 1311.2 762.717 1311.78 C 761.927 1311.48 761.136 1311.17 760.345 1310.87 C 758.076 1305.82 755.34 1302.13 752.081 1297.75 C 763.746 1282.72 780.229 1266.59 792.582 1250.29 C 794.004 1249.23 799.181 1242.86 800.777 1241.01 z" fill="rgb(28,26,26)" fill-opacity="0.901961" transform="translate(0,0)"></path>
<path d="M 1272.77 1132.54 C 1261.42 1127.05 1272.3 1134.55 1264.48 1136.36 C 1258.7 1137.7 1249.31 1151.84 1247.58 1151.36 C 1244.45 1147.8 1265.03 1129.03 1267.7 1125.17 C 1277.78 1110.63 1277.29 1121.29 1280.37 1120.98 C 1281.68 1120 1280.07 1118.74 1279.73 1117.5 C 1276.42 1105.14 1284.05 1109.55 1289.13 1112.26 L 1287.97 1113.77 C 1285.27 1117.34 1282.67 1120.64 1279.87 1124.14 C 1274.27 1117.5 1273.68 1123.35 1275.67 1129.01 C 1274.66 1130.15 1273.74 1131.36 1272.77 1132.54 z" fill="rgb(28,26,26)" fill-opacity="0.870588" transform="translate(0,0)"></path>
<path d="M 1102.55 851.182 C 1098.78 841.808 1110.21 838.812 1112.38 834.361 C 1115.88 827.153 1119.36 828.831 1121.73 825.402 C 1120.19 822.872 1115.39 818.612 1121.65 815.2 C 1130.28 810.498 1127.93 800.397 1137.6 810.098 C 1135.95 812.174 1130.76 818.319 1128.79 820.086 C 1128.44 818.783 1127.17 817.946 1125.83 818.136 C 1124.5 818.325 1123.51 819.48 1123.54 820.829 C 1123.56 822.178 1124.59 823.296 1125.93 823.436 C 1119 831.904 1109.74 843.334 1102.55 851.182 z" fill="rgb(28,26,26)" fill-opacity="0.870588" transform="translate(0,0)"></path>
<path d="M 1245.57 1165.15 L 1247 1163.53 C 1247.31 1163.9 1247.62 1164.28 1247.93 1164.65 C 1248.65 1165.79 1249.55 1166.77 1250.65 1167.55 C 1250.71 1167.59 1251.41 1169.21 1251.47 1169.34 C 1251.67 1169.75 1251.65 1169.64 1252.1 1169.8 C 1252.98 1169.13 1253.09 1167.72 1253.39 1166.73 C 1254.03 1166.55 1256.72 1168.37 1257.88 1168.81 C 1256.43 1170.09 1252.1 1173.45 1255.42 1174.62 C 1264.41 1177.76 1258.38 1177.58 1262.27 1182.73 C 1261.46 1184 1261.28 1184.09 1260.18 1185.31 C 1257.82 1183.54 1256.25 1180.94 1253.29 1181.44 C 1246.39 1182.6 1244.52 1180.36 1242 1187.08 C 1240.62 1187.28 1237.77 1187.79 1236.52 1187.47 C 1236.46 1187.68 1246.08 1171.96 1245.97 1172.07 L 1246.46 1171.57 C 1246.16 1171.22 1245.82 1171.06 1245.43 1170.89 C 1245.13 1170.39 1245.56 1166.15 1245.57 1165.15 z" fill="rgb(221,220,219)" fill-opacity="0.32549" transform="translate(0,0)"></path>
<path d="M 879.67 1010.76 C 877.374 1008.92 877.464 1007.45 876.101 1006.41 C 873.412 1006.29 871.448 1008.79 870.342 1008.03 C 869.962 1005.28 885.737 986.534 889.139 988.242 C 889.37 989.321 889.036 990.305 889.554 990.898 C 892.393 991.707 893.064 989.079 897.858 990.375 C 890.092 997.813 885.752 1001.15 879.67 1010.76 z" fill="rgb(28,26,26)" fill-opacity="0.909804" transform="translate(0,0)"></path>
<path d="M 874.979 1093.15 C 873.409 1092.48 863.749 1085.73 864.322 1082.99 C 865.094 1079.31 862.404 1069.64 866.217 1066.03 C 865.298 1066.9 865.832 1056.52 865.006 1055.99 C 864.394 1053.7 865.562 1040.75 866.096 1039.99 C 867.148 1039.94 866.933 1040.83 867.43 1041.79 C 865.769 1062.97 868.422 1075.18 878.744 1093.69 C 876.924 1093.59 876.613 1093.67 874.979 1093.15 z" fill="rgb(28,26,26)" fill-opacity="0.976471" transform="translate(0,0)"></path>
<path d="M 1252.22 1156.81 L 1253.19 1157.79 C 1257.56 1163.33 1272.17 1154.14 1270.43 1167.97 C 1270.22 1169.64 1270.76 1169.89 1272 1170.7 C 1271.06 1172.45 1270.64 1172.74 1269.26 1174.32 C 1268.68 1174.99 1268.11 1175.66 1267.54 1176.34 C 1266 1173.67 1264.28 1165.79 1264.42 1165.89 C 1262.8 1165.8 1259.9 1168.04 1257.88 1168.81 C 1256.72 1168.37 1254.03 1166.55 1253.39 1166.73 C 1253.09 1167.72 1252.98 1169.13 1252.1 1169.8 C 1251.65 1169.64 1251.67 1169.75 1251.47 1169.34 C 1251.41 1169.21 1250.71 1167.59 1250.65 1167.55 C 1249.55 1166.77 1248.65 1165.79 1247.93 1164.65 C 1247.62 1164.28 1247.31 1163.9 1247 1163.53 C 1248.78 1161.02 1250.28 1159.18 1252.22 1156.81 z" fill="rgb(221,220,219)" fill-opacity="0.2" transform="translate(0,0)"></path>
<path d="M 1010.22 1100.75 C 1016.95 1105.95 1015.37 1097.02 1019.54 1094.29 C 1020.77 1093.48 1024.29 1089.73 1025.83 1090.39 C 1026.88 1093.34 1023.61 1095.45 1022.46 1096.96 C 1019.8 1100.46 1020.38 1104.13 1015.32 1106.81 C 1010.44 1112.52 1005.57 1112.94 1002.52 1118.98 C 999.32 1117.95 997.717 1117.16 994.905 1115.2 C 1001.81 1109.96 1004.47 1106.96 1010.22 1100.75 z" fill="rgb(28,26,26)" fill-opacity="0.823529" transform="translate(0,0)"></path>
<path d="M 1254.05 1193.12 C 1251.29 1196.57 1246.92 1202.28 1243.82 1205.19 C 1235.75 1200.11 1237.37 1208.41 1234.06 1206.38 C 1234.18 1205.22 1236.79 1204.35 1236.37 1203.47 C 1235.43 1203.01 1228.95 1205.87 1227.05 1206.47 C 1227.56 1205.7 1230.4 1201.94 1230.47 1201.62 L 1230.26 1201.42 C 1227.27 1201.41 1226.26 1203.28 1225.08 1200.42 C 1235.53 1197.6 1240.75 1194.01 1252.02 1193.33 L 1254.05 1193.12 z" fill="rgb(221,220,219)" fill-opacity="0.611765" transform="translate(0,0)"></path>
<path d="M 1289.16 785.84 C 1289.25 786.773 1289.22 788.014 1289.69 788.902 C 1292.93 790.468 1302.11 780.566 1305.01 781.271 C 1305.48 781.708 1305.32 781.449 1305.5 782.036 C 1305.3 782.543 1298.5 787.781 1297.13 789.273 C 1289.65 797.437 1280.28 794.677 1274.48 788.263 C 1278.83 784.243 1283.54 782.983 1289.16 785.84 z" fill="rgb(28,26,26)" fill-opacity="0.592157" transform="translate(0,0)"></path>
<path d="M 854.131 784.786 C 865.969 785.266 869.313 784.63 880.791 783.602 C 881.318 786.366 880.844 783.765 879.854 786.159 L 879.893 786.198 C 879.843 785.499 878.426 791.18 879.602 790.723 C 871.584 793.839 863.94 791.036 856.616 788.302 C 856.67 785.301 854.908 786.7 853.674 785.521 C 853.702 785.172 853.837 785.122 854.131 784.786 z" fill="rgb(28,26,26)" fill-opacity="0.956863" transform="translate(0,0)"></path>
<path d="M 1227.05 1206.47 C 1228.95 1205.87 1235.43 1203.01 1236.37 1203.47 C 1236.79 1204.35 1234.18 1205.22 1234.06 1206.38 C 1237.37 1208.41 1235.75 1200.11 1243.82 1205.19 C 1242.23 1207.21 1241.82 1207.97 1239.76 1209.58 C 1235 1209.95 1226.25 1216.58 1225.3 1216.19 C 1224.7 1215.36 1225.15 1214.57 1224.93 1214.02 C 1224.48 1212.89 1222.75 1214.61 1221.49 1214.09 C 1221.02 1212.19 1223.84 1210.78 1225.26 1210.4 L 1225.24 1210.54 C 1226.08 1209.74 1226.59 1207.61 1227.05 1206.47 z" fill="rgb(221,220,219)" fill-opacity="0.670588" transform="translate(0,0)"></path>
<path d="M 977.28 722.946 C 979.042 720.678 976.486 713.412 986.542 714.536 C 996.221 715.619 995.296 715.805 994.23 722.831 C 988.57 722.99 982.938 722.904 977.28 722.946 z" fill="rgb(221,220,219)" fill-opacity="0.490196" transform="translate(0,0)"></path>
<path d="M 992.653 967.796 C 995.607 964.906 997.854 963.456 1000.52 960.004 C 1003.16 956.593 1005.43 960.788 1007.56 962.119 L 1008.5 964.268 C 1005.86 967.349 1002.57 971.084 999.777 974.002 C 999.821 972.459 998.824 971.079 997.345 970.636 C 995.866 970.194 994.274 970.8 993.463 972.113 C 993.588 969.866 993.775 969.651 992.653 967.796 z" fill="rgb(28,26,26)" fill-opacity="0.772549" transform="translate(0,0)"></path>
<path d="M 835.089 1176.94 C 840.931 1173.45 837.992 1174.66 844.504 1175.48 C 848.572 1176 847.174 1180.56 848.184 1183.57 C 846.911 1185.84 844.078 1188.74 842.251 1190.71 C 837.54 1187.55 845.287 1181.34 843.146 1179.36 C 841.508 1179.12 839.836 1179.45 838.416 1180.3 C 834.789 1182.44 831.05 1184.35 827.465 1186.56 C 828.93 1184.88 835.768 1178.67 835.089 1176.94 z" fill="rgb(221,220,219)" fill-opacity="0.301961" transform="translate(0,0)"></path>
<path d="M 920.288 1126.71 L 922.257 1127.16 C 927.744 1128.48 933.333 1129.57 938.725 1130.88 C 938.697 1131.47 938.669 1132.07 938.641 1132.66 C 939.173 1133.29 938.963 1133 939.299 1133.53 C 938.92 1137.58 923.81 1137.72 921.27 1134.77 C 921.793 1133.38 923.077 1132.24 923.469 1130.56 C 924.177 1127.51 918.919 1129.54 920.288 1126.71 z" fill="url(#Gradient1)" transform="translate(0,0)"></path>
<path d="M 1257.88 1168.81 C 1259.9 1168.04 1262.8 1165.8 1264.42 1165.89 C 1264.28 1165.79 1266 1173.67 1267.54 1176.34 C 1266.19 1178.44 1263.96 1180.86 1262.27 1182.73 C 1258.38 1177.58 1264.41 1177.76 1255.42 1174.62 C 1252.1 1173.45 1256.43 1170.09 1257.88 1168.81 z" fill="rgb(221,220,219)" fill-opacity="0.243137" transform="translate(0,0)"></path>
<path d="M 1305.75 993.729 C 1304.83 991.734 1304.77 991.666 1304.42 989.655 L 1304.5 989.685 C 1304.3 988.922 1302.97 986.315 1303.21 985.67 C 1304.06 983.322 1309.53 979.35 1311.99 980.285 C 1312.6 981.089 1311.65 981.902 1312.24 982.709 C 1315.2 984.022 1314.56 981.124 1319.31 984.37 C 1314.56 987.484 1310.37 990.569 1305.75 993.729 z" fill="rgb(28,26,26)" fill-opacity="0.890196" transform="translate(0,0)"></path>
<path d="M 1287.57 1008.3 C 1285.97 1008.29 1281.25 1008.75 1280.27 1008.03 C 1280.13 1007.49 1280.08 1007.72 1280.3 1007.33 C 1282.3 1006.19 1284.72 1006.97 1286.34 1002.32 C 1288.5 996.112 1294.53 997.07 1298.91 1000.23 C 1296.35 1003.15 1295.25 1004.74 1292.96 1007.72 L 1287.57 1008.3 z" fill="rgb(28,26,26)" fill-opacity="0.898039" transform="translate(0,0)"></path>
<path d="M 1324.35 671.772 C 1325.8 670.231 1327.29 668.821 1329.46 668.251 C 1329.72 672.025 1328.21 672.937 1329.78 675.127 C 1332.28 678.626 1329.58 679.661 1329.52 680.477 C 1332.67 685.538 1334.65 700.966 1332.31 706.202 C 1329.19 692.011 1330.46 686.581 1324.35 671.772 z" fill="rgb(28,26,26)" fill-opacity="0.890196" transform="translate(0,0)"></path>
<path d="M 1424.08 1006.16 L 1425.11 1005.44 C 1425.56 1005.11 1425.95 1004.86 1426.51 1004.77 C 1427.86 1005.28 1427.09 1006.44 1427.75 1006.77 C 1429.67 1007.74 1433.36 1005.38 1434.74 1008.05 C 1435.85 1010.17 1432.64 1013.17 1431.96 1014.57 C 1429.34 1019.91 1436.9 1018.24 1436.97 1018.24 C 1438.68 1019.59 1434.76 1020.8 1434.28 1021.51 C 1434.4 1023.26 1434.41 1024.9 1434.3 1026.64 C 1430.55 1018.48 1428.04 1013.95 1424.08 1006.16 z" fill="rgb(28,26,26)" fill-opacity="0.839216" transform="translate(0,0)"></path>
<path d="M 1242 1187.08 C 1244.52 1180.36 1246.39 1182.6 1253.29 1181.44 C 1256.25 1180.94 1257.82 1183.54 1260.18 1185.31 L 1260.15 1186.09 C 1258.3 1188.03 1256.56 1189.98 1254.74 1191.93 C 1251.21 1181.82 1250.61 1185.71 1242 1187.08 z" fill="rgb(221,220,219)" fill-opacity="0.403922" transform="translate(0,0)"></path>
<path d="M 1051.77 734.129 C 1054.52 734.122 1076.18 733.683 1076.69 735.667 C 1076.08 736.206 1072.88 736.003 1072.25 736 C 1070.32 735.999 1048.76 737.192 1047.86 735.808 C 1048.75 734.329 1050.09 734.443 1051.77 734.129 z" fill="rgb(28,26,26)" fill-opacity="0.882353" transform="translate(0,0)"></path>
<path d="M 993.463 972.113 C 994.274 970.8 995.866 970.194 997.345 970.636 C 998.824 971.079 999.821 972.459 999.777 974.002 C 999.731 975.6 998.583 976.952 997.013 977.255 C 995.684 977.511 994.329 976.957 993.559 975.843 C 992.79 974.729 992.752 973.266 993.463 972.113 z" fill="rgb(28,26,26)" fill-opacity="0.858824" transform="translate(0,0)"></path>
<path d="M 1275.67 1129.01 C 1273.68 1123.35 1274.27 1117.5 1279.87 1124.14 C 1278.47 1125.99 1277.23 1127.3 1275.67 1129.01 z" fill="rgb(28,26,26)" fill-opacity="0.890196" transform="translate(0,0)"></path>
<path d="M 1125.93 823.436 C 1124.59 823.296 1123.56 822.178 1123.54 820.829 C 1123.51 819.48 1124.5 818.325 1125.83 818.136 C 1127.17 817.946 1128.44 818.783 1128.79 820.086 C 1129.01 820.935 1128.81 821.843 1128.24 822.512 C 1127.67 823.182 1126.8 823.527 1125.93 823.436 z" fill="rgb(28,26,26)" fill-opacity="0.898039" transform="translate(0,0)"></path>
<metadata><recraft-signature>{"signed_by": "recraft", "signature_b64": "ZgfUmBbFSkU7zf/SxcgUw41NEPoQg6sB8BRUKsWgp89rwfWFXHxksg6RQrPPNKfUn9+72aJxVDCv3NocuSnOBA==", "signing_algo": "Ed25519", "generation_timestamp": 1777813819, "identifier": "2e4edaeb-d7d2-4204-a89a-ccc7b3d7e99a"}</recraft-signature></metadata></svg>